<?plantuml 1.2026.2?><svg xmlns="http://www.w3.org/2000/svg" xmlns:xlink="http://www.w3.org/1999/xlink" contentStyleType="text/css" data-diagram-type="SEQUENCE" height="1866px" preserveAspectRatio="none" style="width:1594px;height:1866px;background:#FFFFFF;" version="1.1" viewBox="0 0 1594 1866" width="1594px" zoomAndPan="magnify"><defs/><g><rect fill="#FFF4EC" height="1854.72" style="stroke:#CCCCCC;stroke-width:0.5;" width="120.351" x="260.1835" y="6"/><text fill="#1A1A1A" font-family="Sora" font-size="13" font-weight="bold" lengthAdjust="spacing" textLength="104.351" x="268.1835" y="23.61">Copilot (Haiku)</text><rect fill="#F7F7F7" height="1854.72" style="stroke:#CCCCCC;stroke-width:0.5;" width="502.256" x="525.879" y="6"/><text fill="#1A1A1A" font-family="Sora" font-size="13" font-weight="bold" lengthAdjust="spacing" textLength="209.365" x="672.3245" y="23.61">Researchers (Haiku, read-only)</text><rect fill="#FFF4EC" height="1854.72" style="stroke:#CCCCCC;stroke-width:0.5;" width="245.801" x="1030.135" y="6"/><text fill="#1A1A1A" font-family="Sora" font-size="13" font-weight="bold" lengthAdjust="spacing" textLength="229.801" x="1038.135" y="23.61">Implementer (Sonnet, read+write)</text><rect fill="#F7F7F7" height="1854.72" style="stroke:#CCCCCC;stroke-width:0.5;" width="205.605" x="1381.0355" y="6"/><text fill="#1A1A1A" font-family="Sora" font-size="13" font-weight="bold" lengthAdjust="spacing" textLength="189.605" x="1389.0355" y="23.61">Reviewer (Haiku, read-only)</text><g><title>Coder</title><rect fill="#FFFFFF" height="159.28" style="stroke:#181818;stroke-width:1;" width="10" x="1148.0355" y="1365.16"/></g><g class="participant-lifeline" data-entity-uid="part1" data-qualified-name="dev" id="part1-lifeline"><g><title>Developer</title><rect fill="#000000" fill-opacity="0.00000" height="1679.96" width="8" x="43.1055" y="91.38"/><line style="stroke:#9A9A9A;stroke-width:0.5;stroke-dasharray:5,5;" x1="47" x2="47" y1="91.38" y2="1771.34"/></g></g><g class="participant-lifeline" data-entity-uid="part2" data-qualified-name="copilot" id="part2-lifeline"><g><title>Orchestrator</title><rect fill="#000000" fill-opacity="0.00000" height="1679.96" width="8" x="316.359" y="91.38"/><line style="stroke:#9A9A9A;stroke-width:0.5;stroke-dasharray:5,5;" x1="319.511" x2="319.511" y1="91.38" y2="1771.34"/></g></g><g class="participant-lifeline" data-entity-uid="part3" data-qualified-name="r1" id="part3-lifeline"><g><title>R1. Jira</title><rect fill="#000000" fill-opacity="0.00000" height="1679.96" width="8" x="560.9085" y="91.38"/><line style="stroke:#9A9A9A;stroke-width:0.5;stroke-dasharray:5,5;" x1="564.879" x2="564.879" y1="91.38" y2="1771.34"/></g></g><g class="participant-lifeline" data-entity-uid="part4" data-qualified-name="r2" id="part4-lifeline"><g><title>R2. Vault</title><rect fill="#000000" fill-opacity="0.00000" height="1679.96" width="8" x="646.7395" y="91.38"/><line style="stroke:#9A9A9A;stroke-width:0.5;stroke-dasharray:5,5;" x1="649.938" x2="649.938" y1="91.38" y2="1771.34"/></g></g><g class="participant-lifeline" data-entity-uid="part5" data-qualified-name="r3" id="part5-lifeline"><g><title>R3. Confluence</title><rect fill="#000000" fill-opacity="0.00000" height="1679.96" width="8" x="759.448" y="91.38"/><line style="stroke:#9A9A9A;stroke-width:0.5;stroke-dasharray:5,5;" x1="762.541" x2="762.541" y1="91.38" y2="1771.34"/></g></g><g class="participant-lifeline" data-entity-uid="part6" data-qualified-name="r4" id="part6-lifeline"><g><title>R4. Slack</title><rect fill="#000000" fill-opacity="0.00000" height="1679.96" width="8" x="873.0015" y="91.38"/><line style="stroke:#9A9A9A;stroke-width:0.5;stroke-dasharray:5,5;" x1="876.355" x2="876.355" y1="91.38" y2="1771.34"/></g></g><g class="participant-lifeline" data-entity-uid="part7" data-qualified-name="r5" id="part7-lifeline"><g><title>R5. GitHub</title><rect fill="#000000" fill-opacity="0.00000" height="1679.96" width="8" x="972.3915" y="91.38"/><line style="stroke:#9A9A9A;stroke-width:0.5;stroke-dasharray:5,5;" x1="975.648" x2="975.648" y1="91.38" y2="1771.34"/></g></g><g class="participant-lifeline" data-entity-uid="part8" data-qualified-name="impl" id="part8-lifeline"><g><title>Coder</title><rect fill="#000000" fill-opacity="0.00000" height="1679.96" width="8" x="1149.0355" y="91.38"/><line style="stroke:#9A9A9A;stroke-width:0.5;stroke-dasharray:5,5;" x1="1152.3525" x2="1152.3525" y1="91.38" y2="1771.34"/></g></g><g class="participant-lifeline" data-entity-uid="part9" data-qualified-name="rev" id="part9-lifeline"><g><title>Auditor</title><rect fill="#000000" fill-opacity="0.00000" height="1679.96" width="8" x="1479.838" y="91.38"/><line style="stroke:#9A9A9A;stroke-width:0.5;stroke-dasharray:5,5;" x1="1483.5335" x2="1483.5335" y1="91.38" y2="1771.34"/></g></g><g class="participant participant-head" data-entity-uid="part1" data-qualified-name="dev" id="part1-head"><text fill="#1A1A1A" font-family="Sora" font-size="13" lengthAdjust="spacing" textLength="68.211" x="10" y="82.61">Developer</text><ellipse cx="47.1055" cy="13.5" fill="#FFF4EC" rx="8" ry="8" style="stroke:#D96A1F;stroke-width:0.5;"/><path d="M47.1055,21.5 L47.1055,48.5 M34.1055,29.5 L60.1055,29.5 M47.1055,48.5 L34.1055,63.5 M47.1055,48.5 L60.1055,63.5" fill="none" style="stroke:#D96A1F;stroke-width:0.5;"/></g><g class="participant participant-tail" data-entity-uid="part1" data-qualified-name="dev" id="part1-tail"><text fill="#1A1A1A" font-family="Sora" font-size="13" lengthAdjust="spacing" textLength="68.211" x="10" y="1787.95">Developer</text><ellipse cx="47.1055" cy="1805.22" fill="#FFF4EC" rx="8" ry="8" style="stroke:#D96A1F;stroke-width:0.5;"/><path d="M47.1055,1813.22 L47.1055,1840.22 M34.1055,1821.22 L60.1055,1821.22 M47.1055,1840.22 L34.1055,1855.22 M47.1055,1840.22 L60.1055,1855.22" fill="none" style="stroke:#D96A1F;stroke-width:0.5;"/></g><g class="participant participant-head" data-entity-uid="part2" data-qualified-name="copilot" id="part2-head"><rect fill="#FFF4EC" height="40.38" rx="2.5" ry="2.5" style="stroke:#D96A1F;stroke-width:0.5;" width="109.696" x="265.511" y="50"/><text fill="#1A1A1A" font-family="Sora" font-size="13" lengthAdjust="spacing" textLength="85.696" x="277.511" y="74.61">Orchestrator</text></g><g class="participant participant-tail" data-entity-uid="part2" data-qualified-name="copilot" id="part2-tail"><rect fill="#FFF4EC" height="40.38" rx="2.5" ry="2.5" style="stroke:#D96A1F;stroke-width:0.5;" width="109.696" x="265.511" y="1770.34"/><text fill="#1A1A1A" font-family="Sora" font-size="13" lengthAdjust="spacing" textLength="85.696" x="277.511" y="1794.95">Orchestrator</text></g><g class="participant participant-head" data-entity-uid="part3" data-qualified-name="r1" id="part3-head"><rect fill="#FFF4EC" height="40.38" rx="2.5" ry="2.5" style="stroke:#D96A1F;stroke-width:0.5;" width="70.059" x="529.879" y="50"/><text fill="#1A1A1A" font-family="Sora" font-size="13" lengthAdjust="spacing" textLength="46.059" x="541.879" y="74.61">R1: Jira</text></g><g class="participant participant-tail" data-entity-uid="part3" data-qualified-name="r1" id="part3-tail"><rect fill="#FFF4EC" height="40.38" rx="2.5" ry="2.5" style="stroke:#D96A1F;stroke-width:0.5;" width="70.059" x="529.879" y="1770.34"/><text fill="#1A1A1A" font-family="Sora" font-size="13" lengthAdjust="spacing" textLength="46.059" x="541.879" y="1794.95">R1: Jira</text></g><g class="participant participant-head" data-entity-uid="part4" data-qualified-name="r2" id="part4-head"><rect fill="#FFF4EC" height="40.38" rx="2.5" ry="2.5" style="stroke:#D96A1F;stroke-width:0.5;" width="81.603" x="609.938" y="50"/><text fill="#1A1A1A" font-family="Sora" font-size="13" lengthAdjust="spacing" textLength="57.603" x="621.938" y="74.61">R2: Vault</text></g><g class="participant participant-tail" data-entity-uid="part4" data-qualified-name="r2" id="part4-tail"><rect fill="#FFF4EC" height="40.38" rx="2.5" ry="2.5" style="stroke:#D96A1F;stroke-width:0.5;" width="81.603" x="609.938" y="1770.34"/><text fill="#1A1A1A" font-family="Sora" font-size="13" lengthAdjust="spacing" textLength="57.603" x="621.938" y="1794.95">R2: Vault</text></g><g class="participant participant-head" data-entity-uid="part5" data-qualified-name="r3" id="part5-head"><rect fill="#FFF4EC" height="40.38" rx="2.5" ry="2.5" style="stroke:#D96A1F;stroke-width:0.5;" width="123.814" x="701.541" y="50"/><text fill="#1A1A1A" font-family="Sora" font-size="13" lengthAdjust="spacing" textLength="99.814" x="713.541" y="74.61">R3: Confluence</text></g><g class="participant participant-tail" data-entity-uid="part5" data-qualified-name="r3" id="part5-tail"><rect fill="#FFF4EC" height="40.38" rx="2.5" ry="2.5" style="stroke:#D96A1F;stroke-width:0.5;" width="123.814" x="701.541" y="1770.34"/><text fill="#1A1A1A" font-family="Sora" font-size="13" lengthAdjust="spacing" textLength="99.814" x="713.541" y="1794.95">R3: Confluence</text></g><g class="participant participant-head" data-entity-uid="part6" data-qualified-name="r4" id="part6-head"><rect fill="#FFF4EC" height="40.38" rx="2.5" ry="2.5" style="stroke:#D96A1F;stroke-width:0.5;" width="83.293" x="835.355" y="50"/><text fill="#1A1A1A" font-family="Sora" font-size="13" lengthAdjust="spacing" textLength="59.293" x="847.355" y="74.61">R4: Slack</text></g><g class="participant participant-tail" data-entity-uid="part6" data-qualified-name="r4" id="part6-tail"><rect fill="#FFF4EC" height="40.38" rx="2.5" ry="2.5" style="stroke:#D96A1F;stroke-width:0.5;" width="83.293" x="835.355" y="1770.34"/><text fill="#1A1A1A" font-family="Sora" font-size="13" lengthAdjust="spacing" textLength="59.293" x="847.355" y="1794.95">R4: Slack</text></g><g class="participant participant-head" data-entity-uid="part7" data-qualified-name="r5" id="part7-head"><rect fill="#FFF4EC" height="40.38" rx="2.5" ry="2.5" style="stroke:#D96A1F;stroke-width:0.5;" width="95.487" x="928.648" y="50"/><text fill="#1A1A1A" font-family="Sora" font-size="13" lengthAdjust="spacing" textLength="71.487" x="940.648" y="74.61">R5: GitHub</text></g><g class="participant participant-tail" data-entity-uid="part7" data-qualified-name="r5" id="part7-tail"><rect fill="#FFF4EC" height="40.38" rx="2.5" ry="2.5" style="stroke:#D96A1F;stroke-width:0.5;" width="95.487" x="928.648" y="1770.34"/><text fill="#1A1A1A" font-family="Sora" font-size="13" lengthAdjust="spacing" textLength="71.487" x="940.648" y="1794.95">R5: GitHub</text></g><g class="participant participant-head" data-entity-uid="part8" data-qualified-name="impl" id="part8-head"><rect fill="#FFF4EC" height="40.38" rx="2.5" ry="2.5" style="stroke:#D96A1F;stroke-width:0.5;" width="65.366" x="1120.3525" y="50"/><text fill="#1A1A1A" font-family="Sora" font-size="13" lengthAdjust="spacing" textLength="41.366" x="1132.3525" y="74.61">Coder</text></g><g class="participant participant-tail" data-entity-uid="part8" data-qualified-name="impl" id="part8-tail"><rect fill="#FFF4EC" height="40.38" rx="2.5" ry="2.5" style="stroke:#D96A1F;stroke-width:0.5;" width="65.366" x="1120.3525" y="1770.34"/><text fill="#1A1A1A" font-family="Sora" font-size="13" lengthAdjust="spacing" textLength="41.366" x="1132.3525" y="1794.95">Coder</text></g><g class="participant participant-head" data-entity-uid="part9" data-qualified-name="rev" id="part9-head"><rect fill="#FFF4EC" height="40.38" rx="2.5" ry="2.5" style="stroke:#D96A1F;stroke-width:0.5;" width="74.609" x="1446.5335" y="50"/><text fill="#1A1A1A" font-family="Sora" font-size="13" lengthAdjust="spacing" textLength="50.609" x="1458.5335" y="74.61">Auditor</text></g><g class="participant participant-tail" data-entity-uid="part9" data-qualified-name="rev" id="part9-tail"><rect fill="#FFF4EC" height="40.38" rx="2.5" ry="2.5" style="stroke:#D96A1F;stroke-width:0.5;" width="74.609" x="1446.5335" y="1770.34"/><text fill="#1A1A1A" font-family="Sora" font-size="13" lengthAdjust="spacing" textLength="50.609" x="1458.5335" y="1794.95">Auditor</text></g><g><title>Coder</title><rect fill="#FFFFFF" height="159.28" style="stroke:#181818;stroke-width:1;" width="10" x="1148.0355" y="1365.16"/></g><rect fill="#FFF4EC" height="3" style="stroke:#FFF4EC;stroke-width:1;" width="1587.6405" x="0" y="127.57"/><line style="stroke:#D96A1F;stroke-width:1;" x1="0" x2="1587.6405" y1="127.57" y2="127.57"/><line style="stroke:#D96A1F;stroke-width:1;" x1="0" x2="1587.6405" y1="130.57" y2="130.57"/><rect fill="#FFF4EC" height="34.38" style="stroke:#D96A1F;stroke-width:2;" width="272.248" x="657.6963" y="111.38"/><text fill="#D96A1F" font-family="Sora" font-size="13" font-weight="bold" lengthAdjust="spacing" textLength="245.596" x="668.6963" y="132.99">Phase 1: Understand (Copilot, Haiku)</text><g class="message" data-entity-1="part1" data-entity-2="part2" id="msg1"><polygon fill="#D96A1F" points="308.359,184.14,318.359,188.14,308.359,192.14,312.359,188.14" style="stroke:#D96A1F;stroke-width:1;"/><line style="stroke:#D96A1F;stroke-width:1;" x1="47.1055" x2="314.359" y1="188.14" y2="188.14"/><text fill="#1A1A1A" font-family="Sora" font-size="13" lengthAdjust="spacing" textLength="158.158" x="104.6533" y="177.37">"implementa EXP-3570"</text></g><g class="message" data-entity-1="part2" data-entity-2="part3" id="msg2"><polygon fill="#D96A1F" points="552.9085,224.52,562.9085,228.52,552.9085,232.52,556.9085,228.52" style="stroke:#D96A1F;stroke-width:1;"/><line style="stroke:#D96A1F;stroke-width:1;" x1="320.359" x2="558.9085" y1="228.52" y2="228.52"/><text fill="#1A1A1A" font-family="Sora" font-size="13" lengthAdjust="spacing" textLength="102.908" x="391.1798" y="217.75">Read Jira ticket</text></g><g class="message" data-entity-1="part3" data-entity-2="part2" id="msg3"><polygon fill="#D96A1F" points="331.359,264.9,321.359,268.9,331.359,272.9,327.359,268.9" style="stroke:#D96A1F;stroke-width:1;"/><line style="stroke:#D96A1F;stroke-width:1;stroke-dasharray:2,2;" x1="325.359" x2="563.9085" y1="268.9" y2="268.9"/><text fill="#1A1A1A" font-family="Sora" font-size="13" lengthAdjust="spacing" textLength="209.222" x="338.0228" y="258.13">What, Why, Acceptance Criteria</text></g><rect fill="#FFF4EC" height="3" style="stroke:#FFF4EC;stroke-width:1;" width="1587.6405" x="0" y="303.09"/><line style="stroke:#D96A1F;stroke-width:1;" x1="0" x2="1587.6405" y1="303.09" y2="303.09"/><line style="stroke:#D96A1F;stroke-width:1;" x1="0" x2="1587.6405" y1="306.09" y2="306.09"/><rect fill="#FFF4EC" height="34.38" style="stroke:#D96A1F;stroke-width:2;" width="401.13" x="593.2553" y="286.9"/><text fill="#D96A1F" font-family="Sora" font-size="13" font-weight="bold" lengthAdjust="spacing" textLength="374.478" x="604.2553" y="308.51">Phase 2: Knowledge Base Search (5 Researchers, Haiku)</text><g class="message" data-entity-1="part2" data-entity-2="part3" id="msg4"><polygon fill="#D96A1F" points="552.9085,359.66,562.9085,363.66,552.9085,367.66,556.9085,363.66" style="stroke:#D96A1F;stroke-width:1;"/><line style="stroke:#D96A1F;stroke-width:1;" x1="320.359" x2="558.9085" y1="363.66" y2="363.66"/><text fill="#1A1A1A" font-family="Sora" font-size="13" lengthAdjust="spacing" textLength="119.015" x="383.1263" y="352.89">Jira related issues</text></g><g class="message" data-entity-1="part2" data-entity-2="part4" id="msg5"><polygon fill="#D96A1F" points="638.7395,400.04,648.7395,404.04,638.7395,408.04,642.7395,404.04" style="stroke:#D96A1F;stroke-width:1;"/><line style="stroke:#D96A1F;stroke-width:1;" x1="320.359" x2="644.7395" y1="404.04" y2="404.04"/><text fill="#1A1A1A" font-family="Sora" font-size="13" lengthAdjust="spacing" textLength="202.332" x="384.3833" y="393.27">query_vault("instant booking")</text></g><g class="message" data-entity-1="part2" data-entity-2="part5" id="msg6"><polygon fill="#D96A1F" points="751.448,440.42,761.448,444.42,751.448,448.42,755.448,444.42" style="stroke:#D96A1F;stroke-width:1;"/><line style="stroke:#D96A1F;stroke-width:1;" x1="320.359" x2="757.448" y1="444.42" y2="444.42"/><text fill="#1A1A1A" font-family="Sora" font-size="13" lengthAdjust="spacing" textLength="115.505" x="484.151" y="433.65">Confluence ADRs</text></g><g class="message" data-entity-1="part2" data-entity-2="part6" id="msg7"><polygon fill="#D96A1F" points="865.0015,480.8,875.0015,484.8,865.0015,488.8,869.0015,484.8" style="stroke:#D96A1F;stroke-width:1;"/><line style="stroke:#D96A1F;stroke-width:1;" x1="320.359" x2="871.0015" y1="484.8" y2="484.8"/><text fill="#1A1A1A" font-family="Sora" font-size="13" lengthAdjust="spacing" textLength="116.428" x="540.4663" y="474.03">Slack discussions</text></g><g class="message" data-entity-1="part2" data-entity-2="part7" id="msg8"><polygon fill="#D96A1F" points="964.3915,521.18,974.3915,525.18,964.3915,529.18,968.3915,525.18" style="stroke:#D96A1F;stroke-width:1;"/><line style="stroke:#D96A1F;stroke-width:1;" x1="320.359" x2="970.3915" y1="525.18" y2="525.18"/><text fill="#1A1A1A" font-family="Sora" font-size="13" lengthAdjust="spacing" textLength="131.43" x="582.6603" y="514.41">GitHub PRs + git log</text></g><path d="M526,538.18 L526,590.18 L1015,590.18 L1015,548.18 L1005,538.18 L526,538.18" fill="#FFF9F3" style="stroke:#D96A1F;stroke-width:0.5;"/><path d="M1005,538.18 L1005,548.18 L1015,548.18 L1005,538.18" fill="#FFF9F3" style="stroke:#D96A1F;stroke-width:0.5;"/><text fill="#3A3A3A" font-family="Sora" font-size="13" font-weight="bold" lengthAdjust="spacing" textLength="124.345" x="708.4555" y="560.79">All 5 run in parallel</text><text fill="#3A3A3A" font-family="Sora" font-size="13" lengthAdjust="spacing" textLength="212.758" x="664.249" y="577.17">Haiku = ~85% cheaper than Opus</text><g class="message" data-entity-1="part3" data-entity-2="part2" id="msg9"><polygon fill="#D96A1F" points="331.359,624.32,321.359,628.32,331.359,632.32,327.359,628.32" style="stroke:#D96A1F;stroke-width:1;"/><line style="stroke:#D96A1F;stroke-width:1;stroke-dasharray:2,2;" x1="325.359" x2="563.9085" y1="628.32" y2="628.32"/><text fill="#1A1A1A" font-family="Sora" font-size="13" lengthAdjust="spacing" textLength="98.995" x="393.1363" y="617.55">Related tickets</text></g><g class="message" data-entity-1="part4" data-entity-2="part2" id="msg10"><polygon fill="#D96A1F" points="331.359,664.7,321.359,668.7,331.359,672.7,327.359,668.7" style="stroke:#D96A1F;stroke-width:1;"/><line style="stroke:#D96A1F;stroke-width:1;stroke-dasharray:2,2;" x1="325.359" x2="649.7395" y1="668.7" y2="668.7"/><text fill="#1A1A1A" font-family="Sora" font-size="13" lengthAdjust="spacing" textLength="208.026" x="381.5363" y="657.93">Pitfall: "check autoConfirm too"</text></g><g class="message" data-entity-1="part5" data-entity-2="part2" id="msg11"><polygon fill="#D96A1F" points="331.359,705.08,321.359,709.08,331.359,713.08,327.359,709.08" style="stroke:#D96A1F;stroke-width:1;"/><line style="stroke:#D96A1F;stroke-width:1;stroke-dasharray:2,2;" x1="325.359" x2="762.448" y1="709.08" y2="709.08"/><text fill="#1A1A1A" font-family="Sora" font-size="13" lengthAdjust="spacing" textLength="169.624" x="457.0915" y="698.31">ADR on confirmation flow</text></g><g class="message" data-entity-1="part6" data-entity-2="part2" id="msg12"><polygon fill="#D96A1F" points="331.359,745.46,321.359,749.46,331.359,753.46,327.359,749.46" style="stroke:#D96A1F;stroke-width:1;"/><line style="stroke:#D96A1F;stroke-width:1;stroke-dasharray:2,2;" x1="325.359" x2="876.0015" y1="749.46" y2="749.46"/><text fill="#1A1A1A" font-family="Sora" font-size="13" lengthAdjust="spacing" textLength="156.221" x="520.5698" y="738.69">PM business rule thread</text></g><g class="message" data-entity-1="part7" data-entity-2="part2" id="msg13"><polygon fill="#D96A1F" points="331.359,785.84,321.359,789.84,331.359,793.84,327.359,789.84" style="stroke:#D96A1F;stroke-width:1;"/><line style="stroke:#D96A1F;stroke-width:1;stroke-dasharray:2,2;" x1="325.359" x2="975.3915" y1="789.84" y2="789.84"/><text fill="#1A1A1A" font-family="Sora" font-size="13" lengthAdjust="spacing" textLength="170.04" x="563.3553" y="779.07">Prior PR + recent commits</text></g><g class="message" data-entity-1="part2" data-entity-2="part2" id="msg14"><line style="stroke:#D96A1F;stroke-width:1;" x1="320.359" x2="362.359" y1="830.22" y2="830.22"/><line style="stroke:#D96A1F;stroke-width:1;" x1="362.359" x2="362.359" y1="830.22" y2="843.22"/><line style="stroke:#D96A1F;stroke-width:1;" x1="321.359" x2="362.359" y1="843.22" y2="843.22"/><polygon fill="#D96A1F" points="331.359,839.22,321.359,843.22,331.359,847.22,327.359,843.22" style="stroke:#D96A1F;stroke-width:1;"/><text fill="#1A1A1A" font-family="Sora" font-size="13" lengthAdjust="spacing" textLength="128.713" x="332.359" y="819.45">Synthesize findings</text></g><rect fill="#FFF4EC" height="3" style="stroke:#FFF4EC;stroke-width:1;" width="1587.6405" x="0" y="877.41"/><line style="stroke:#D96A1F;stroke-width:1;" x1="0" x2="1587.6405" y1="877.41" y2="877.41"/><line style="stroke:#D96A1F;stroke-width:1;" x1="0" x2="1587.6405" y1="880.41" y2="880.41"/><rect fill="#FFF4EC" height="34.38" style="stroke:#D96A1F;stroke-width:2;" width="359.647" x="613.9967" y="861.22"/><text fill="#D96A1F" font-family="Sora" font-size="13" font-weight="bold" lengthAdjust="spacing" textLength="332.995" x="624.9967" y="882.83">Phase 3: Codebase Discovery (Researcher, Haiku)</text><g class="message" data-entity-1="part2" data-entity-2="part4" id="msg15"><polygon fill="#D96A1F" points="638.7395,950.36,648.7395,954.36,638.7395,958.36,642.7395,954.36" style="stroke:#D96A1F;stroke-width:1;"/><line style="stroke:#D96A1F;stroke-width:1;" x1="320.359" x2="644.7395" y1="954.36" y2="954.36"/><text fill="#1A1A1A" font-family="Sora" font-size="13" lengthAdjust="spacing" textLength="234.585" x="368.2568" y="927.21">Read OfferCard.tsx, PriceBadge.tsx,</text><text fill="#1A1A1A" font-family="Sora" font-size="13" lengthAdjust="spacing" textLength="87.178" x="441.9603" y="943.59">offer.ts, tests</text></g><g class="message" data-entity-1="part4" data-entity-2="part2" id="msg16"><polygon fill="#D96A1F" points="331.359,990.74,321.359,994.74,331.359,998.74,327.359,994.74" style="stroke:#D96A1F;stroke-width:1;"/><line style="stroke:#D96A1F;stroke-width:1;stroke-dasharray:2,2;" x1="325.359" x2="649.7395" y1="994.74" y2="994.74"/><text fill="#1A1A1A" font-family="Sora" font-size="13" lengthAdjust="spacing" textLength="161.863" x="404.6178" y="983.97">Existing patterns + types</text></g><rect fill="#FFF4EC" height="3" style="stroke:#FFF4EC;stroke-width:1;" width="1587.6405" x="0" y="1028.93"/><line style="stroke:#D96A1F;stroke-width:1;" x1="0" x2="1587.6405" y1="1028.93" y2="1028.93"/><line style="stroke:#D96A1F;stroke-width:1;" x1="0" x2="1587.6405" y1="1031.93" y2="1031.93"/><rect fill="#FFF4EC" height="34.38" style="stroke:#D96A1F;stroke-width:2;" width="268.3869" x="659.6268" y="1012.74"/><text fill="#D96A1F" font-family="Sora" font-size="13" font-weight="bold" lengthAdjust="spacing" textLength="241.735" x="670.6268" y="1034.35">Phase 3.5: Worktree Setup (Copilot)</text><g class="message" data-entity-1="part2" data-entity-2="part2" id="msg17"><line style="stroke:#D96A1F;stroke-width:1;" x1="320.359" x2="362.359" y1="1122.26" y2="1122.26"/><line style="stroke:#D96A1F;stroke-width:1;" x1="362.359" x2="362.359" y1="1122.26" y2="1135.26"/><line style="stroke:#D96A1F;stroke-width:1;" x1="321.359" x2="362.359" y1="1135.26" y2="1135.26"/><polygon fill="#D96A1F" points="331.359,1131.26,321.359,1135.26,331.359,1139.26,327.359,1135.26" style="stroke:#D96A1F;stroke-width:1;"/><text fill="#1A1A1A" font-family="Sora" font-size="13" lengthAdjust="spacing" textLength="109.005" x="347.2375" y="1078.73">git worktree add</text><text fill="#1A1A1A" font-family="Sora" font-size="13" lengthAdjust="spacing" textLength="116.22" x="343.63" y="1095.11">copy CLAUDE.md</text><text fill="#1A1A1A" font-family="Sora" font-size="13" lengthAdjust="spacing" textLength="138.762" x="332.359" y="1111.49">nvm use + yarn install</text></g><rect fill="#FFF4EC" height="3" style="stroke:#FFF4EC;stroke-width:1;" width="1587.6405" x="0" y="1169.45"/><line style="stroke:#D96A1F;stroke-width:1;" x1="0" x2="1587.6405" y1="1169.45" y2="1169.45"/><line style="stroke:#D96A1F;stroke-width:1;" x1="0" x2="1587.6405" y1="1172.45" y2="1172.45"/><rect fill="#FFF4EC" height="34.38" style="stroke:#D96A1F;stroke-width:2;" width="348.662" x="619.4892" y="1153.26"/><text fill="#D96A1F" font-family="Sora" font-size="13" font-weight="bold" lengthAdjust="spacing" textLength="322.01" x="630.4892" y="1174.87">Phase 4: Implementation Guide (Copilot, Haiku)</text><g class="message" data-entity-1="part2" data-entity-2="part1" id="msg18"><polygon fill="#D96A1F" points="58.1055,1226.02,48.1055,1230.02,58.1055,1234.02,54.1055,1230.02" style="stroke:#D96A1F;stroke-width:1;"/><line style="stroke:#D96A1F;stroke-width:1;stroke-dasharray:2,2;" x1="52.1055" x2="319.359" y1="1230.02" y2="1230.02"/><text fill="#1A1A1A" font-family="Sora" font-size="13" font-weight="bold" lengthAdjust="spacing" textLength="212.745" x="77.3598" y="1219.25">Plan with steps, risks, diagrams</text></g><g class="message" data-entity-1="part1" data-entity-2="part2" id="msg19"><polygon fill="#D96A1F" points="308.359,1266.4,318.359,1270.4,308.359,1274.4,312.359,1270.4" style="stroke:#D96A1F;stroke-width:1;"/><line style="stroke:#D96A1F;stroke-width:1;stroke-dasharray:2,2;" x1="47.1055" x2="314.359" y1="1270.4" y2="1270.4"/><text fill="#1A1A1A" font-family="Sora" font-size="13" lengthAdjust="spacing" textLength="183.352" x="92.0563" y="1259.63">"Approved, add tooltip too"</text></g><rect fill="#FFF4EC" height="3" style="stroke:#FFF4EC;stroke-width:1;" width="1587.6405" x="0" y="1304.59"/><line style="stroke:#D96A1F;stroke-width:1;" x1="0" x2="1587.6405" y1="1304.59" y2="1304.59"/><line style="stroke:#D96A1F;stroke-width:1;" x1="0" x2="1587.6405" y1="1307.59" y2="1307.59"/><rect fill="#FFF4EC" height="34.38" style="stroke:#D96A1F;stroke-width:2;" width="349.182" x="619.2292" y="1288.4"/><text fill="#D96A1F" font-family="Sora" font-size="13" font-weight="bold" lengthAdjust="spacing" textLength="322.53" x="630.2292" y="1310.01">Phase 5: Implementation (Implementer, Sonnet)</text><g class="message" data-entity-1="part2" data-entity-2="part8" id="msg20"><polygon fill="#D96A1F" points="1136.0355,1361.16,1146.0355,1365.16,1136.0355,1369.16,1140.0355,1365.16" style="stroke:#D96A1F;stroke-width:1;"/><line style="stroke:#D96A1F;stroke-width:1;" x1="320.359" x2="1142.0355" y1="1365.16" y2="1365.16"/><text fill="#1A1A1A" font-family="Sora" font-size="13" lengthAdjust="spacing" textLength="237.783" x="615.3058" y="1354.39">Approved spec + patterns + gotchas</text></g><g class="message" data-entity-1="part8" data-entity-2="part8" id="msg21"><line style="stroke:#D96A1F;stroke-width:1;" x1="1158.0355" x2="1200.0355" y1="1471.06" y2="1471.06"/><line style="stroke:#D96A1F;stroke-width:1;" x1="1200.0355" x2="1200.0355" y1="1471.06" y2="1484.06"/><line style="stroke:#D96A1F;stroke-width:1;" x1="1159.0355" x2="1200.0355" y1="1484.06" y2="1484.06"/><polygon fill="#D96A1F" points="1169.0355,1480.06,1159.0355,1484.06,1169.0355,1488.06,1165.0355,1484.06" style="stroke:#D96A1F;stroke-width:1;"/><text fill="#1A1A1A" font-family="Sora" font-size="13" lengthAdjust="spacing" textLength="77.623" x="1200.7675" y="1394.77">1. Edit types</text><text fill="#1A1A1A" font-family="Sora" font-size="13" lengthAdjust="spacing" textLength="139.087" x="1170.0355" y="1411.15">2. Create component</text><text fill="#1A1A1A" font-family="Sora" font-size="13" lengthAdjust="spacing" textLength="86.671" x="1196.2435" y="1427.53">3. Write tests</text><text fill="#1A1A1A" font-family="Sora" font-size="13" lengthAdjust="spacing" textLength="76.232" x="1201.463" y="1443.91">4. Run tests</text><text fill="#1A1A1A" font-family="Sora" font-size="13" lengthAdjust="spacing" textLength="64.285" x="1207.4365" y="1460.29">5. /deslop</text></g><g class="message" data-entity-1="part8" data-entity-2="part2" id="msg22"><polygon fill="#D96A1F" points="331.359,1520.44,321.359,1524.44,331.359,1528.44,327.359,1524.44" style="stroke:#D96A1F;stroke-width:1;"/><line style="stroke:#D96A1F;stroke-width:1;stroke-dasharray:2,2;" x1="325.359" x2="1152.0355" y1="1524.44" y2="1524.44"/><text fill="#1A1A1A" font-family="Sora" font-size="13" lengthAdjust="spacing" textLength="175.045" x="649.1747" y="1513.67">Code complete, tests pass</text></g><rect fill="#FFF4EC" height="3" style="stroke:#FFF4EC;stroke-width:1;" width="1587.6405" x="0" y="1558.63"/><line style="stroke:#D96A1F;stroke-width:1;" x1="0" x2="1587.6405" y1="1558.63" y2="1558.63"/><line style="stroke:#D96A1F;stroke-width:1;" x1="0" x2="1587.6405" y1="1561.63" y2="1561.63"/><rect fill="#FFF4EC" height="34.38" style="stroke:#D96A1F;stroke-width:2;" width="288.069" x="649.7857" y="1542.44"/><text fill="#D96A1F" font-family="Sora" font-size="13" font-weight="bold" lengthAdjust="spacing" textLength="261.417" x="660.7857" y="1564.05">Phase 6: Wrap-up (Copilot + Reviewer)</text><g class="message" data-entity-1="part2" data-entity-2="part9" id="msg23"><polygon fill="#D96A1F" points="1471.838,1615.2,1481.838,1619.2,1471.838,1623.2,1475.838,1619.2" style="stroke:#D96A1F;stroke-width:1;"/><line style="stroke:#D96A1F;stroke-width:1;" x1="320.359" x2="1477.838" y1="1619.2" y2="1619.2"/><text fill="#1A1A1A" font-family="Sora" font-size="13" lengthAdjust="spacing" textLength="179.4" x="812.3985" y="1608.43">Review diff (18 dimensions)</text></g><g class="message" data-entity-1="part9" data-entity-2="part2" id="msg24"><polygon fill="#D96A1F" points="331.359,1655.58,321.359,1659.58,331.359,1663.58,327.359,1659.58" style="stroke:#D96A1F;stroke-width:1;"/><line style="stroke:#D96A1F;stroke-width:1;stroke-dasharray:2,2;" x1="325.359" x2="1482.838" y1="1659.58" y2="1659.58"/><text fill="#1A1A1A" font-family="Sora" font-size="13" lengthAdjust="spacing" textLength="104.169" x="850.014" y="1648.81">Findings (if any)</text></g><g class="message" data-entity-1="part2" data-entity-2="part2" id="msg25"><line style="stroke:#D96A1F;stroke-width:1;" x1="320.359" x2="362.359" y1="1699.96" y2="1699.96"/><line style="stroke:#D96A1F;stroke-width:1;" x1="362.359" x2="362.359" y1="1699.96" y2="1712.96"/><line style="stroke:#D96A1F;stroke-width:1;" x1="321.359" x2="362.359" y1="1712.96" y2="1712.96"/><polygon fill="#D96A1F" points="331.359,1708.96,321.359,1712.96,331.359,1716.96,327.359,1712.96" style="stroke:#D96A1F;stroke-width:1;"/><text fill="#1A1A1A" font-family="Sora" font-size="13" lengthAdjust="spacing" textLength="136.89" x="332.359" y="1689.19">/commit + /create-pr</text></g><g class="message" data-entity-1="part2" data-entity-2="part1" id="msg26"><polygon fill="#D96A1F" points="58.1055,1749.34,48.1055,1753.34,58.1055,1757.34,54.1055,1753.34" style="stroke:#D96A1F;stroke-width:1;"/><line style="stroke:#D96A1F;stroke-width:1;stroke-dasharray:2,2;" x1="52.1055" x2="319.359" y1="1753.34" y2="1753.34"/><text fill="#1A1A1A" font-family="Sora" font-size="13" lengthAdjust="spacing" textLength="237.926" x="64.7693" y="1742.57">PR ready with diagrams + CI monitor</text></g><?plantuml-src ZLPjJ-D64FxkNp5ALIc441f2xev8L0g1Wskv4eLUwGUaQh77oOhDhhkxJaYhzhTtTjScDavGOmbipxFFpiipipRFN6PCioKyiVXvhbKkauaIIiDtgVz5vXLnYIdBXVsifFs5BH7kbMQxpGL3dxbhD-IU_uNG7rICPi4IjUPo3YaJ1YkM92px5L_iMF2vNAAq4DCVr1LKnfB4hHvMEV7F76MCNz4ODaU_khbIeycKD2Ng0eLQZxLMQx0wnsW77_mT0Vqyg0WsEVl0-kdsTJCFpdJBKxpb4Y-KJb0NzZFchhfzJpKyQCgqvJ7FcBGrdeeBLSWEgbECtyAQ_ePOOglqlbs2yHr-3zZ3VA5UQhon_xsQ6gmVtLMQzt1Uquhi1XcnLX15xbu13UvAI06m9rvlV8zO9PkcuynTmRzBlkB4_5xAIiWU5mfpnOd2-4zLfrBPKgFxY7RvS9OElAt2Fc3kSkpCrH9QbxYY_iXGju0PQirLzAHUe3LH6HVAGlk6yUVye5M9ATkA35ftEbwWiPeHcMU8my88PGB45DXcQ90vf3O5OvUwb2L7IegD9o_LK2EVzKVm4zVC4-j-mtmoWj_S90dsauPzC8A9agdmFHv0WmReT0JtWf8NxASD-t04rzpUv4y1CAn7zcMP2Lpw2GJjUoKbsX3QuLfpY_iJDr59aNDE56_JjUAuTep_FrVZFE5b3JHLiIICpizXkc26flC8ladQr5X6jdPHuIw42iFvUHHH-U7enxA6C88MB-DZSFNxz6Wm_FX3Aohj1DLzGit8FLye87-UqKRqzgZ6yx1WjDF3OjEb6H9ZHYxGr9su56dEAavIIN-MQYqmcIDfcjxSU-L0UmWL5TMyVkkEzqIZO1OJuCRaQ6gO4yBGtDURFrPEFUqMboudblAbgENchOCQV01L6S7uSbQdEuL2GP1m4-V6S3fyQeWXb1g2wSp08Sov1Q7cKUGRMwserBhV3S1EPom4347d4hXqHMP2eEXq7gMF6SxXtq_3xu7omAXjmIwOXBiiDr4pxRCY2Q4i9gBGwu0fjtGw2oeqqL44BBVAnShr4gnIhOYYhw-Wy47HeHj0p5AmaD816r4Utd1_XQVSqE5dI96vGFBKwJYYADy0DQT9D9rHOZJ6_cD0BPUS_ArcSOk_tqXBGyTzSQHSkey4Kr6GR_e4dzpz9HN4PNS3xQruzchdf9JoNPhIY6KwwLdpqdN-nNI2aoBzywDKpaxtNR0q-tQazUg56-i-NZ9cIU7IrTnkCgpvsQF9yg3qizNeL6xpxBKf6xvjgPrqrkKg-aHwb6JRmEHs_EtoghUaPxbQGauR7CA6QQSX4hSGbPrfuhsEhL30wvmEeTqZuTK9yiAD1oVGgI39hRbTWB6OKHeqDy_qB-5iJiULwNJ29AcFad6MQIf6qdLkEtK9oxEWigrlmuPlxSg8xK8OiOtyk37bn5bi0IR3c19GIVzSsPXsSCSUNr5JXB7hrstNztjmHMCqrEfHdlHeHA43ao3fav9yU9I37ZoukHLg_oXFUp2ZLYsUXZquJj3GYLfmrtBWXEcv15eir4DE6aFvgZkspSW7KebcsL557XHEUKGqLUnh5CnKa3I5TlyJtL02_M0wY7IZD9-BBe8sJu79pS5kwHs7jgJTZsEVbgDCxz07DRBhyqrGIAa9MZNv0aibtIaL_GS0?></g></svg>