<?plantuml 1.2026.2?><svg xmlns="http://www.w3.org/2000/svg" xmlns:xlink="http://www.w3.org/1999/xlink" contentStyleType="text/css" data-diagram-type="SEQUENCE" height="1102px" preserveAspectRatio="none" style="width:1086px;height:1102px;background:#FFFFFF;" version="1.1" viewBox="0 0 1086 1102" width="1086px" zoomAndPan="magnify"><defs/><g><rect fill="#FAFAFA" height="148.9" style="stroke:#D96A1F;stroke-width:1.5;" width="301.457" x="207.845" y="371.8"/><rect fill="#FAFAFA" height="68.76" style="stroke:none;stroke-width:1;" width="301.457" x="207.845" y="451.94"/><g class="participant-lifeline" data-entity-uid="part1" data-qualified-name="dev" id="part1-lifeline"><g><title>Developer</title><rect fill="#000000" fill-opacity="0.00000" height="920.5" width="8" x="43.1055" y="91.38"/><line style="stroke:#9A9A9A;stroke-width:0.5;stroke-dasharray:5,5;" x1="47" x2="47" y1="91.38" y2="1011.88"/></g></g><g class="participant-lifeline" data-entity-uid="part2" data-qualified-name="claude" id="part2-lifeline"><g><title>Claude Code</title><rect fill="#000000" fill-opacity="0.00000" height="920.5" width="8" x="268.6475" y="91.38"/><line style="stroke:#9A9A9A;stroke-width:0.5;stroke-dasharray:5,5;" x1="271.845" x2="271.845" y1="91.38" y2="1011.88"/></g></g><g class="participant-lifeline" data-entity-uid="part3" data-qualified-name="pre" id="part3-lifeline"><g><title>PreToolUse</title><rect fill="#000000" fill-opacity="0.00000" height="920.5" width="8" x="445.4005" y="91.38"/><line style="stroke:#9A9A9A;stroke-width:0.5;stroke-dasharray:5,5;" x1="448.499" x2="448.499" y1="91.38" y2="1011.88"/></g></g><g class="participant-lifeline" data-entity-uid="part4" data-qualified-name="tool" id="part4-lifeline"><g><title>Tool</title><rect fill="#000000" fill-opacity="0.00000" height="920.5" width="8" x="550.166" y="91.38"/><line style="stroke:#9A9A9A;stroke-width:0.5;stroke-dasharray:5,5;" x1="553.302" x2="553.302" y1="91.38" y2="1011.88"/></g></g><g class="participant-lifeline" data-entity-uid="part5" data-qualified-name="post" id="part5-lifeline"><g><title>PostToolUse</title><rect fill="#000000" fill-opacity="0.00000" height="920.5" width="8" x="658.9355" y="91.38"/><line style="stroke:#9A9A9A;stroke-width:0.5;stroke-dasharray:5,5;" x1="662.03" x2="662.03" y1="91.38" y2="1011.88"/></g></g><g class="participant-lifeline" data-entity-uid="part6" data-qualified-name="stop" id="part6-lifeline"><g><title>Stop</title><rect fill="#000000" fill-opacity="0.00000" height="920.5" width="8" x="756.0635" y="91.38"/><line style="stroke:#9A9A9A;stroke-width:0.5;stroke-dasharray:5,5;" x1="759.841" x2="759.841" y1="91.38" y2="1011.88"/></g></g><g class="participant participant-head" data-entity-uid="part1" data-qualified-name="dev" id="part1-head"><text fill="#1A1A1A" font-family="Sora" font-size="13" lengthAdjust="spacing" textLength="68.211" x="10" y="82.61">Developer</text><ellipse cx="47.1055" cy="13.5" fill="#FFF4EC" rx="8" ry="8" style="stroke:#D96A1F;stroke-width:0.5;"/><path d="M47.1055,21.5 L47.1055,48.5 M34.1055,29.5 L60.1055,29.5 M47.1055,48.5 L34.1055,63.5 M47.1055,48.5 L60.1055,63.5" fill="none" style="stroke:#D96A1F;stroke-width:0.5;"/></g><g class="participant participant-tail" data-entity-uid="part1" data-qualified-name="dev" id="part1-tail"><text fill="#1A1A1A" font-family="Sora" font-size="13" lengthAdjust="spacing" textLength="68.211" x="10" y="1028.49">Developer</text><ellipse cx="47.1055" cy="1045.76" fill="#FFF4EC" rx="8" ry="8" style="stroke:#D96A1F;stroke-width:0.5;"/><path d="M47.1055,1053.76 L47.1055,1080.76 M34.1055,1061.76 L60.1055,1061.76 M47.1055,1080.76 L34.1055,1095.76 M47.1055,1080.76 L60.1055,1095.76" fill="none" style="stroke:#D96A1F;stroke-width:0.5;"/></g><g class="participant participant-head" data-entity-uid="part2" data-qualified-name="claude" id="part2-head"><rect fill="#FFF4EC" height="40.38" rx="2.5" ry="2.5" style="stroke:#D96A1F;stroke-width:0.5;" width="109.605" x="217.845" y="50"/><text fill="#1A1A1A" font-family="Sora" font-size="13" lengthAdjust="spacing" textLength="85.605" x="229.845" y="74.61">Claude Code</text></g><g class="participant participant-tail" data-entity-uid="part2" data-qualified-name="claude" id="part2-tail"><rect fill="#FFF4EC" height="40.38" rx="2.5" ry="2.5" style="stroke:#D96A1F;stroke-width:0.5;" width="109.605" x="217.845" y="1010.88"/><text fill="#1A1A1A" font-family="Sora" font-size="13" lengthAdjust="spacing" textLength="85.605" x="229.845" y="1035.49">Claude Code</text></g><g class="participant participant-head" data-entity-uid="part3" data-qualified-name="pre" id="part3-head"><rect fill="#FFF4EC" height="56.76" rx="2.5" ry="2.5" style="stroke:#D96A1F;stroke-width:0.5;" width="99.803" x="399.499" y="33.62"/><text fill="#1A1A1A" font-family="Sora" font-size="13" lengthAdjust="spacing" textLength="75.803" x="411.499" y="58.23">PreToolUse</text><text fill="#1A1A1A" font-family="Sora" font-size="13" lengthAdjust="spacing" textLength="42.445" x="428.178" y="74.61">Hooks</text></g><g class="participant participant-tail" data-entity-uid="part3" data-qualified-name="pre" id="part3-tail"><rect fill="#FFF4EC" height="56.76" rx="2.5" ry="2.5" style="stroke:#D96A1F;stroke-width:0.5;" width="99.803" x="399.499" y="1010.88"/><text fill="#1A1A1A" font-family="Sora" font-size="13" lengthAdjust="spacing" textLength="75.803" x="411.499" y="1035.49">PreToolUse</text><text fill="#1A1A1A" font-family="Sora" font-size="13" lengthAdjust="spacing" textLength="42.445" x="428.178" y="1051.87">Hooks</text></g><g class="participant participant-head" data-entity-uid="part4" data-qualified-name="tool" id="part4-head"><rect fill="#FFF4EC" height="56.76" rx="2.5" ry="2.5" style="stroke:#D96A1F;stroke-width:0.5;" width="89.728" x="509.302" y="33.62"/><text fill="#1A1A1A" font-family="Sora" font-size="13" lengthAdjust="spacing" textLength="29.016" x="539.658" y="58.23">Tool</text><text fill="#1A1A1A" font-family="Sora" font-size="13" lengthAdjust="spacing" textLength="65.728" x="521.302" y="74.61">Execution</text></g><g class="participant participant-tail" data-entity-uid="part4" data-qualified-name="tool" id="part4-tail"><rect fill="#FFF4EC" height="56.76" rx="2.5" ry="2.5" style="stroke:#D96A1F;stroke-width:0.5;" width="89.728" x="509.302" y="1010.88"/><text fill="#1A1A1A" font-family="Sora" font-size="13" lengthAdjust="spacing" textLength="29.016" x="539.658" y="1035.49">Tool</text><text fill="#1A1A1A" font-family="Sora" font-size="13" lengthAdjust="spacing" textLength="65.728" x="521.302" y="1051.87">Execution</text></g><g class="participant participant-head" data-entity-uid="part5" data-qualified-name="post" id="part5-head"><rect fill="#FFF4EC" height="56.76" rx="2.5" ry="2.5" style="stroke:#D96A1F;stroke-width:0.5;" width="107.811" x="609.03" y="33.62"/><text fill="#1A1A1A" font-family="Sora" font-size="13" lengthAdjust="spacing" textLength="83.811" x="621.03" y="58.23">PostToolUse</text><text fill="#1A1A1A" font-family="Sora" font-size="13" lengthAdjust="spacing" textLength="42.445" x="641.713" y="74.61">Hooks</text></g><g class="participant participant-tail" data-entity-uid="part5" data-qualified-name="post" id="part5-tail"><rect fill="#FFF4EC" height="56.76" rx="2.5" ry="2.5" style="stroke:#D96A1F;stroke-width:0.5;" width="107.811" x="609.03" y="1010.88"/><text fill="#1A1A1A" font-family="Sora" font-size="13" lengthAdjust="spacing" textLength="83.811" x="621.03" y="1035.49">PostToolUse</text><text fill="#1A1A1A" font-family="Sora" font-size="13" lengthAdjust="spacing" textLength="42.445" x="641.713" y="1051.87">Hooks</text></g><g class="participant participant-head" data-entity-uid="part6" data-qualified-name="stop" id="part6-head"><rect fill="#FFF4EC" height="56.76" rx="2.5" ry="2.5" style="stroke:#D96A1F;stroke-width:0.5;" width="66.445" x="726.841" y="33.62"/><text fill="#1A1A1A" font-family="Sora" font-size="13" lengthAdjust="spacing" textLength="32.24" x="743.9435" y="58.23">Stop</text><text fill="#1A1A1A" font-family="Sora" font-size="13" lengthAdjust="spacing" textLength="42.445" x="738.841" y="74.61">Hooks</text></g><g class="participant participant-tail" data-entity-uid="part6" data-qualified-name="stop" id="part6-tail"><rect fill="#FFF4EC" height="56.76" rx="2.5" ry="2.5" style="stroke:#D96A1F;stroke-width:0.5;" width="66.445" x="726.841" y="1010.88"/><text fill="#1A1A1A" font-family="Sora" font-size="13" lengthAdjust="spacing" textLength="32.24" x="743.9435" y="1035.49">Stop</text><text fill="#1A1A1A" font-family="Sora" font-size="13" lengthAdjust="spacing" textLength="42.445" x="738.841" y="1051.87">Hooks</text></g><rect fill="#FFF4EC" height="3" style="stroke:#FFF4EC;stroke-width:1;" width="1079.828" x="0" y="127.57"/><line style="stroke:#D96A1F;stroke-width:1;" x1="0" x2="1079.828" y1="127.57" y2="127.57"/><line style="stroke:#D96A1F;stroke-width:1;" x1="0" x2="1079.828" y1="130.57" y2="130.57"/><rect fill="#FFF4EC" height="34.38" style="stroke:#D96A1F;stroke-width:2;" width="140.675" x="469.5765" y="111.38"/><text fill="#D96A1F" font-family="Sora" font-size="13" font-weight="bold" lengthAdjust="spacing" textLength="114.023" x="480.5765" y="132.99">Before Tool Runs</text><g class="message" data-entity-1="part1" data-entity-2="part2" id="msg1"><polygon fill="#D96A1F" points="260.6475,184.14,270.6475,188.14,260.6475,192.14,264.6475,188.14" style="stroke:#D96A1F;stroke-width:1;"/><line style="stroke:#D96A1F;stroke-width:1;" x1="47.1055" x2="266.6475" y1="188.14" y2="188.14"/><text fill="#1A1A1A" font-family="Sora" font-size="13" lengthAdjust="spacing" textLength="191.542" x="64.1055" y="177.37">User input (e.g. "git commit")</text></g><g class="message" data-entity-1="part2" data-entity-2="part3" id="msg2"><polygon fill="#D96A1F" points="437.4005,224.52,447.4005,228.52,437.4005,232.52,441.4005,228.52" style="stroke:#D96A1F;stroke-width:1;"/><line style="stroke:#D96A1F;stroke-width:1;" x1="272.6475" x2="443.4005" y1="228.52" y2="228.52"/><text fill="#1A1A1A" font-family="Sora" font-size="13" lengthAdjust="spacing" textLength="90.571" x="315.7385" y="217.75">Check guards</text></g><path d="M454,241.52 L454,359.52 L786,359.52 L786,251.52 L776,241.52 L454,241.52" fill="#FFF9F3" style="stroke:#D96A1F;stroke-width:0.5;"/><path d="M776,241.52 L776,251.52 L786,251.52 L776,241.52" fill="#FFF9F3" style="stroke:#D96A1F;stroke-width:0.5;"/><text fill="#3A3A3A" font-family="Sora" font-size="13" font-weight="bold" lengthAdjust="spacing" textLength="122.785" x="474.9035" y="264.13">skill-enforcement</text><text fill="#3A3A3A" font-family="Sora" font-size="13" lengthAdjust="spacing" textLength="168.376" x="597.6885" y="264.13">: blocks git commit direct</text><text fill="#3A3A3A" font-family="Sora" font-size="13" font-weight="bold" lengthAdjust="spacing" textLength="108.602" x="494.241" y="280.51">tool-preference</text><text fill="#3A3A3A" font-family="Sora" font-size="13" lengthAdjust="spacing" textLength="143.884" x="602.843" y="280.51">: redirects cat to Read</text><text fill="#3A3A3A" font-family="Sora" font-size="13" font-weight="bold" lengthAdjust="spacing" textLength="115.154" x="485.1865" y="296.89">db-tunnel-guard</text><text fill="#3A3A3A" font-family="Sora" font-size="13" lengthAdjust="spacing" textLength="155.441" x="600.3405" y="296.89">: blocks le aws postgres</text><text fill="#3A3A3A" font-family="Sora" font-size="13" font-weight="bold" lengthAdjust="spacing" textLength="135.616" x="474" y="313.27">agent-model-guard</text><text fill="#3A3A3A" font-family="Sora" font-size="13" lengthAdjust="spacing" textLength="157.352" x="609.616" y="313.27">: enforces Haiku/Sonnet</text><text fill="#3A3A3A" font-family="Sora" font-size="13" font-weight="bold" lengthAdjust="spacing" textLength="107.861" x="511.6415" y="329.65">pre-git-commit</text><text fill="#3A3A3A" font-family="Sora" font-size="13" lengthAdjust="spacing" textLength="109.824" x="619.5025" y="329.65">: runs lint + types</text><text fill="#3A3A3A" font-family="Sora" font-size="13" font-weight="bold" lengthAdjust="spacing" textLength="88.946" x="498.141" y="346.03">cwd-context</text><text fill="#3A3A3A" font-family="Sora" font-size="13" lengthAdjust="spacing" textLength="155.74" x="587.087" y="346.03">: injects service context</text><path d="M207.845,371.8 L280.525,371.8 L280.525,390.18 L270.525,400.18 L207.845,400.18 L207.845,371.8" fill="#D96A1F"/><rect fill="none" height="148.9" style="stroke:#D96A1F;stroke-width:1.5;" width="301.457" x="207.845" y="371.8"/><text fill="#FFFFFF" font-family="Sora" font-size="13" font-weight="bold" lengthAdjust="spacing" textLength="17.68" x="227.845" y="390.41">alt</text><text fill="#FFFFFF" font-family="Sora" font-size="13" font-weight="bold" lengthAdjust="spacing" textLength="66.56" x="300.525" y="391.41">[blocked]</text><g class="message" data-entity-1="part3" data-entity-2="part2" id="msg3"><polygon fill="#D96A1F" points="283.6475,439.94,273.6475,443.94,283.6475,447.94,279.6475,443.94" style="stroke:#D96A1F;stroke-width:1;"/><line style="stroke:#D96A1F;stroke-width:1;stroke-dasharray:2,2;" x1="277.6475" x2="448.4005" y1="443.94" y2="443.94"/><text fill="#1A1A1A" font-family="Sora" font-size="13" font-weight="bold" lengthAdjust="spacing" textLength="48.113" x="289.6475" y="433.17">BLOCK</text><text fill="#1A1A1A" font-family="Sora" font-size="13" lengthAdjust="spacing" textLength="91.676" x="340.7245" y="433.17">(use /commit)</text></g><line style="stroke:#D96A1F;stroke-width:1;stroke-dasharray:2,2;" x1="207.845" x2="509.302" y1="452.94" y2="452.94"/><text fill="#FFFFFF" font-family="Sora" font-size="13" font-weight="bold" lengthAdjust="spacing" textLength="65.104" x="217.845" y="470.55">[allowed]</text><g class="message" data-entity-1="part3" data-entity-2="part2" id="msg4"><polygon fill="#D96A1F" points="283.6475,508.7,273.6475,512.7,283.6475,516.7,279.6475,512.7" style="stroke:#D96A1F;stroke-width:1;"/><line style="stroke:#D96A1F;stroke-width:1;stroke-dasharray:2,2;" x1="277.6475" x2="448.4005" y1="512.7" y2="512.7"/><text fill="#1A1A1A" font-family="Sora" font-size="13" lengthAdjust="spacing" textLength="30.368" x="345.84" y="501.93">pass</text></g><rect fill="#FFF4EC" height="3" style="stroke:#FFF4EC;stroke-width:1;" width="1079.828" x="0" y="553.89"/><line style="stroke:#D96A1F;stroke-width:1;" x1="0" x2="1079.828" y1="553.89" y2="553.89"/><line style="stroke:#D96A1F;stroke-width:1;" x1="0" x2="1079.828" y1="556.89" y2="556.89"/><rect fill="#FFF4EC" height="34.38" style="stroke:#D96A1F;stroke-width:2;" width="93.29" x="493.269" y="537.7"/><text fill="#D96A1F" font-family="Sora" font-size="13" font-weight="bold" lengthAdjust="spacing" textLength="66.638" x="504.269" y="559.31">Tool Runs</text><g class="message" data-entity-1="part2" data-entity-2="part4" id="msg5"><polygon fill="#D96A1F" points="542.166,610.46,552.166,614.46,542.166,618.46,546.166,614.46" style="stroke:#D96A1F;stroke-width:1;"/><line style="stroke:#D96A1F;stroke-width:1;" x1="272.6475" x2="548.166" y1="614.46" y2="614.46"/><text fill="#1A1A1A" font-family="Sora" font-size="13" lengthAdjust="spacing" textLength="52.572" x="387.1207" y="603.69">Execute</text></g><g class="message" data-entity-1="part4" data-entity-2="part2" id="msg6"><polygon fill="#D96A1F" points="283.6475,650.84,273.6475,654.84,283.6475,658.84,279.6475,654.84" style="stroke:#D96A1F;stroke-width:1;"/><line style="stroke:#D96A1F;stroke-width:1;stroke-dasharray:2,2;" x1="277.6475" x2="553.166" y1="654.84" y2="654.84"/><text fill="#1A1A1A" font-family="Sora" font-size="13" lengthAdjust="spacing" textLength="41.444" x="392.6847" y="644.07">Result</text></g><rect fill="#FFF4EC" height="3" style="stroke:#FFF4EC;stroke-width:1;" width="1079.828" x="0" y="689.03"/><line style="stroke:#D96A1F;stroke-width:1;" x1="0" x2="1079.828" y1="689.03" y2="689.03"/><line style="stroke:#D96A1F;stroke-width:1;" x1="0" x2="1079.828" y1="692.03" y2="692.03"/><rect fill="#FFF4EC" height="34.38" style="stroke:#D96A1F;stroke-width:2;" width="130.535" x="474.6465" y="672.84"/><text fill="#D96A1F" font-family="Sora" font-size="13" font-weight="bold" lengthAdjust="spacing" textLength="103.883" x="485.6465" y="694.45">After Tool Runs</text><g class="message" data-entity-1="part2" data-entity-2="part5" id="msg7"><polygon fill="#D96A1F" points="650.9355,745.6,660.9355,749.6,650.9355,753.6,654.9355,749.6" style="stroke:#D96A1F;stroke-width:1;"/><line style="stroke:#D96A1F;stroke-width:1;" x1="272.6475" x2="656.9355" y1="749.6" y2="749.6"/><text fill="#1A1A1A" font-family="Sora" font-size="13" lengthAdjust="spacing" textLength="73.177" x="431.203" y="738.83">Log &amp; track</text></g><path d="M667,762.6 L667,814.6 L944,814.6 L944,772.6 L934,762.6 L667,762.6" fill="#FFF9F3" style="stroke:#D96A1F;stroke-width:0.5;"/><path d="M934,762.6 L934,772.6 L944,772.6 L934,762.6" fill="#FFF9F3" style="stroke:#D96A1F;stroke-width:0.5;"/><text fill="#3A3A3A" font-family="Sora" font-size="13" font-weight="bold" lengthAdjust="spacing" textLength="84.617" x="702.9315" y="785.21">skill-tracker</text><text fill="#3A3A3A" font-family="Sora" font-size="13" lengthAdjust="spacing" textLength="121.121" x="787.5485" y="785.21">: log skill executed</text><text fill="#3A3A3A" font-family="Sora" font-size="13" font-weight="bold" lengthAdjust="spacing" textLength="116.272" x="687" y="801.59">file-changed-log</text><text fill="#3A3A3A" font-family="Sora" font-size="13" lengthAdjust="spacing" textLength="121.329" x="803.272" y="801.59">: log files modified</text><rect fill="#FFF4EC" height="3" style="stroke:#FFF4EC;stroke-width:1;" width="1079.828" x="0" y="846.55"/><line style="stroke:#D96A1F;stroke-width:1;" x1="0" x2="1079.828" y1="846.55" y2="846.55"/><line style="stroke:#D96A1F;stroke-width:1;" x1="0" x2="1079.828" y1="849.55" y2="849.55"/><rect fill="#FFF4EC" height="34.38" style="stroke:#D96A1F;stroke-width:2;" width="128.689" x="475.5695" y="830.36"/><text fill="#D96A1F" font-family="Sora" font-size="13" font-weight="bold" lengthAdjust="spacing" textLength="102.037" x="486.5695" y="851.97">Task Complete</text><g class="message" data-entity-1="part2" data-entity-2="part6" id="msg8"><polygon fill="#D96A1F" points="748.0635,903.12,758.0635,907.12,748.0635,911.12,752.0635,907.12" style="stroke:#D96A1F;stroke-width:1;"/><line style="stroke:#D96A1F;stroke-width:1;" x1="272.6475" x2="754.0635" y1="907.12" y2="907.12"/><text fill="#1A1A1A" font-family="Sora" font-size="13" lengthAdjust="spacing" textLength="38.896" x="496.9075" y="896.35">Finish</text></g><g class="message" data-entity-1="part6" data-entity-2="part1" id="msg9"><polygon fill="#D96A1F" points="58.1055,943.5,48.1055,947.5,58.1055,951.5,54.1055,947.5" style="stroke:#D96A1F;stroke-width:1;"/><line style="stroke:#D96A1F;stroke-width:1;stroke-dasharray:2,2;" x1="52.1055" x2="759.0635" y1="947.5" y2="947.5"/><text fill="#1A1A1A" font-family="Sora" font-size="13" font-weight="bold" lengthAdjust="spacing" textLength="33.228" x="341.8085" y="936.73">BEEP</text><text fill="#1A1A1A" font-family="Sora" font-size="13" lengthAdjust="spacing" textLength="87.36" x="378.0005" y="936.73">(notification)</text></g><path d="M765,960.5 L765,996.5 L1074,996.5 L1074,970.5 L1064,960.5 L765,960.5" fill="#FFF9F3" style="stroke:#D96A1F;stroke-width:0.5;"/><path d="M1064,960.5 L1064,970.5 L1074,970.5 L1064,960.5" fill="#FFF9F3" style="stroke:#D96A1F;stroke-width:0.5;"/><text fill="#3A3A3A" font-family="Sora" font-size="13" font-weight="bold" lengthAdjust="spacing" textLength="102.141" x="785" y="983.11">failure-handler</text><text fill="#3A3A3A" font-family="Sora" font-size="13" lengthAdjust="spacing" textLength="167.687" x="887.141" y="983.11">: suggest recovery if error</text><?plantuml-src VLNRJXin47tVhnYbKWLRBGZHLW8fbKY08ZMqYD0tNinwTkF6iRUsDu5M_VUExGrnRiHI97lE79-vUDPEXMgOOJDuOkMqDhfLVAYbDl2k2h_ClY8kiMAjTDTQkUziXZ3MXkqsTmmdpA_TaB7uWt1ocXZjX76z4Ag6YacBYOL7jmTyTXTIr6g6oa59VsWILCCuzzwVKaxytQ8gyHQjPJK6xsrFWxRHoYvH0vHwSM6CNe0pBMOx-E1l1lGBe2vOVlQPdLIhu-qyUDD8L3WI2WVQS3IT_OpvjMxVKuq0kcF6YL8qJBardaH22jb1zH7BJTYstXXBwRJPTqiqli4V07kOlv9FSuECc1D45-ShO8izkJu2zcWBnhU8DN_PbixyYleknLmGyrlXBI5x97JcH4Hd_9VsbD9ksK_xY7PfEAjEWorXFsL-UNRcymwzIvnJBpTeUi0iFQDvrgmA3hsXP2r766gE0L26_Jhcpk23rlAdnKTre_NK1cHZDc0UywYkdh5idT0gW1oTRP1fwtQnqV4wSEnqao8ixREituS1LjeWU1AuRvM5VZ_BA30eldJouHo8tW2bjtLmW4Vr4VHgGGD3psR2zGwp3aSU50R1XnCifr2tp72RXMeOKKySw2h42P3dL2qf2rHqUOb-_EJvEJn9NKujhBY12uEb2nu--8BSApH-O7YymMYdH3D7sO5xQlu0va-5QvL2MGGL2Rb4O8kOePh6L43JY5Akc57L4dodpS8D4zFsUAo9BYeX4GLfBAB68CGdJWfAz0TmBqr7MouuOMWqFWUGKB-2LihbND34wqmPAXvQbffCkYWJVHG-bqLQXJmVZ7uCl-Kv7BGMuJZUVvWX3NTWacRiRh-6MUjl2VLUB_IgSZwzX8qDXrdOhh7SewLFHk2ug6ZSxsNogINyIDVmdkOzlRJD7l3TkMg2047ZKoJ99nm2HXsncfMGM9GJfcha1M6MK7zkWUecAa7GLI9zdCnEwI7E6ebqzxf2t_oay5eeOITPsFbGVTU7B5zTtVaa4nSHKslH-plSY26ydw2D2TbIGv0wBcCKjgrhf1nGQ-evcXSG5I1zmSnAuNy0?></g></svg>