<?plantuml 1.2026.2?><svg xmlns="http://www.w3.org/2000/svg" xmlns:xlink="http://www.w3.org/1999/xlink" contentStyleType="text/css" data-diagram-type="DESCRIPTION" height="924px" preserveAspectRatio="none" style="width:813px;height:924px;background:#FFFFFF;" version="1.1" viewBox="0 0 813 924" width="813px" zoomAndPan="magnify"><defs/><g><!--cluster bug--><g class="cluster" data-qualified-name="bug" data-source-line="26" id="ent0002"><rect fill="#FFE6E6" height="139.76" rx="2.5" ry="2.5" style="stroke:#D96A1F;stroke-width:1;" width="205" x="7" y="7"/><text fill="#1A1A1A" font-family="Sora" font-size="13" font-weight="bold" lengthAdjust="spacing" textLength="83.278" x="67.861" y="26.61">1. Bug Found</text></g><!--cluster investigate--><g class="cluster" data-qualified-name="investigate" data-source-line="30" id="ent0004"><rect fill="#FFF4EC" height="139.76" rx="2.5" ry="2.5" style="stroke:#D96A1F;stroke-width:1;" width="225" x="287" y="195.76"/><text fill="#1A1A1A" font-family="Sora" font-size="13" font-weight="bold" lengthAdjust="spacing" textLength="91.533" x="353.7335" y="215.37">2. Investigate</text></g><!--cluster fix--><g class="cluster" data-qualified-name="fix" data-source-line="34" id="ent0006"><rect fill="#E6F4EA" height="139.76" rx="2.5" ry="2.5" style="stroke:#D96A1F;stroke-width:1;" width="356" x="264" y="384.52"/><text fill="#1A1A1A" font-family="Sora" font-size="13" font-weight="bold" lengthAdjust="spacing" textLength="86.541" x="398.7295" y="404.13">3. Fix &amp; Learn</text></g><!--cluster knowledge--><g class="cluster" data-qualified-name="knowledge" data-source-line="39" id="ent0009"><rect fill="#E6EDF7" height="139.76" rx="2.5" ry="2.5" style="stroke:#D96A1F;stroke-width:1;" width="267" x="266" y="573.28"/><text fill="#1A1A1A" font-family="Sora" font-size="13" font-weight="bold" lengthAdjust="spacing" textLength="141.076" x="328.962" y="592.89">4. Knowledge Grows</text></g><!--cluster next--><g class="cluster" data-qualified-name="next" data-source-line="43" id="ent0011"><rect fill="#F1E6F5" height="156.14" rx="2.5" ry="2.5" style="stroke:#D96A1F;stroke-width:1;" width="285" x="52" y="762.04"/><text fill="#1A1A1A" font-family="Sora" font-size="13" font-weight="bold" lengthAdjust="spacing" textLength="141.466" x="123.767" y="781.65">5. Next Task Benefits</text></g><!--entity trigger--><g class="entity" data-qualified-name="bug.trigger" data-source-line="27" id="ent0003"><rect fill="#FFE6E6" height="62.76" rx="2.5" ry="2.5" style="stroke:#D96A1F;stroke-width:0.5;" width="138.277" x="30.86" y="60"/><text fill="#1A1A1A" font-family="Sora" font-size="13" lengthAdjust="spacing" textLength="81.237" x="59.38" y="87.61">CS report or</text><text fill="#1A1A1A" font-family="Sora" font-size="13" lengthAdjust="spacing" textLength="108.277" x="45.86" y="103.99">error in Datadog</text></g><!--entity inv--><g class="entity" data-qualified-name="investigate.inv" data-source-line="31" id="ent0005"><rect fill="#FFF0DB" height="62.76" rx="2.5" ry="2.5" style="stroke:#D96A1F;stroke-width:0.5;" width="158.258" x="310.87" y="248.76"/><text fill="#1A1A1A" font-family="Sora" font-size="13" lengthAdjust="spacing" textLength="128.258" x="325.87" y="276.37">/investigation-case</text><text fill="#1A1A1A" font-family="Sora" font-size="13" lengthAdjust="spacing" textLength="122.057" x="328.9705" y="292.75">7 agents in parallel</text></g><!--entity dbg--><g class="entity" data-qualified-name="fix.dbg" data-source-line="35" id="ent0007"><rect fill="#D7EBDC" height="62.76" rx="2.5" ry="2.5" style="stroke:#D96A1F;stroke-width:0.5;" width="122.118" x="287.94" y="437.52"/><text fill="#1A1A1A" font-family="Sora" font-size="13" lengthAdjust="spacing" textLength="92.118" x="302.94" y="465.13">/debug-mode</text><text fill="#1A1A1A" font-family="Sora" font-size="13" lengthAdjust="spacing" textLength="77.532" x="310.233" y="481.51">fix the code</text></g><!--entity learn--><g class="entity" data-qualified-name="fix.learn" data-source-line="36" id="ent0008"><rect fill="#D7EBDC" height="62.76" rx="2.5" ry="2.5" style="stroke:#D96A1F;stroke-width:0.5;" width="131.036" x="445.48" y="437.52"/><text fill="#1A1A1A" font-family="Sora" font-size="13" lengthAdjust="spacing" textLength="37.271" x="492.3625" y="465.13">/learn</text><text fill="#1A1A1A" font-family="Sora" font-size="13" lengthAdjust="spacing" textLength="101.036" x="460.48" y="481.51">capture gotcha</text></g><!--entity vault--><g class="entity" data-qualified-name="knowledge.vault" data-source-line="40" id="ent0010"><rect fill="#D7DFED" height="62.76" rx="2.5" ry="2.5" style="stroke:#D96A1F;stroke-width:0.5;" width="200.144" x="289.93" y="626.28"/><text fill="#1A1A1A" font-family="Sora" font-size="13" lengthAdjust="spacing" textLength="103.597" x="338.2035" y="653.89">Vault .md saved</text><text fill="#1A1A1A" font-family="Sora" font-size="13" lengthAdjust="spacing" textLength="170.144" x="304.93" y="670.27">ChromaDB indexes (~30s)</text></g><!--entity benefit--><g class="entity" data-qualified-name="next.benefit" data-source-line="44" id="ent0012"><rect fill="#F1E6F5" height="79.14" rx="2.5" ry="2.5" style="stroke:#D96A1F;stroke-width:0.5;" width="217.824" x="76.09" y="815.04"/><text fill="#1A1A1A" font-family="Sora" font-size="13" lengthAdjust="spacing" textLength="135.551" x="117.2265" y="842.65">/feature-dev Phase 2</text><text fill="#1A1A1A" font-family="Sora" font-size="13" lengthAdjust="spacing" textLength="187.824" x="91.09" y="859.03">query_vault finds the gotcha</text><text fill="#1A1A1A" font-family="Sora" font-size="13" font-weight="bold" lengthAdjust="spacing" textLength="44.889" x="137.7145" y="875.41">before</text><text fill="#1A1A1A" font-family="Sora" font-size="13" lengthAdjust="spacing" textLength="46.722" x="185.5675" y="875.41">coding</text></g><g class="entity" data-qualified-name="GMN19" data-source-line="54" id="ent0020"><path d="M559.92,614.9 L559.92,700.42 L806.083,700.42 L806.083,624.9 L796.083,614.9 L559.92,614.9" fill="#FFF9F3" style="stroke:#D96A1F;stroke-width:0.5;"/><path d="M796.083,614.9 L796.083,624.9 L806.083,624.9 L796.083,614.9" fill="#FFF9F3" style="stroke:#D96A1F;stroke-width:1;"/><text fill="#3A3A3A" font-family="Sora" font-size="13" lengthAdjust="spacing" textLength="166.79" x="595.1065" y="637.51">Each investigation makes</text><text fill="#3A3A3A" font-family="Sora" font-size="13" lengthAdjust="spacing" textLength="71.903" x="612.962" y="653.89">the system</text><text fill="#3A3A3A" font-family="Sora" font-size="13" font-weight="bold" lengthAdjust="spacing" textLength="52.806" x="687.829" y="653.89">smarter</text><text fill="#3A3A3A" font-family="Sora" font-size="13" lengthAdjust="spacing" textLength="3.406" x="740.635" y="653.89">.</text><text fill="#3A3A3A" font-family="Sora" font-size="13" lengthAdjust="spacing" textLength="154.713" x="601.145" y="670.27">3 months = hundreds of</text><text fill="#3A3A3A" font-family="Sora" font-size="13" lengthAdjust="spacing" textLength="215.163" x="570.92" y="686.65">accumulated knowledge chunks.</text></g><!--link bug to investigate--><g class="link" data-entity-1="ent0002" data-entity-2="ent0004" data-link-type="dependency" data-source-line="47" id="lnk13"><path d="M212.2762,92.1359 C212.9412,92.125 213.6433,92.1152 214.3814,92.1067 C220.286,92.0394 228.4948,92.0657 238.4478,92.4052 C258.3538,93.0841 285.2363,95.0156 314.615,99.9562 C373.3725,109.8375 442.115,131.755 485,179.76 C488.6863,183.8863 491.753,188.5017 494.2968,193.4235 C494.6148,194.0388 494.9246,194.6588 495.2264,195.2832 C495.3019,195.4393 492.8011,190.1767 492.8756,190.3334" fill="none" id="bug-to-investigate" style="stroke:#D96A1F;stroke-width:1;"/><polygon fill="#D96A1F" points="495.4513,195.7524,495.2004,185.9067,493.3049,191.2365,487.975,189.341,495.4513,195.7524" style="stroke:#D96A1F;stroke-width:1;"/></g><!--link investigate to fix--><g class="link" data-entity-1="ent0004" data-entity-2="ent0006" data-link-type="dependency" data-source-line="48" id="lnk14"><path d="M512.0245,286.4081 C512.1121,286.4679 512.2003,286.5281 512.2891,286.5888 C512.4667,286.7103 512.6467,286.8337 512.829,286.9589 C513.5584,287.46 514.3255,287.9914 515.1275,288.5522 C521.5431,293.0387 530.1875,299.4112 539.5775,307.25 C558.3575,322.9275 580.12,344.47 593,368.52 C595.6125,373.3975 597.8697,378.5794 599.8195,383.9169 C599.8804,384.0837 597.9034,378.6072 597.9638,378.7743" fill="none" id="investigate-to-fix" style="stroke:#D96A1F;stroke-width:1;"/><polygon fill="#D96A1F" points="600.0013,384.4177,600.7072,374.5942,598.3033,379.7149,593.1827,377.311,600.0013,384.4177" style="stroke:#D96A1F;stroke-width:1;"/></g><!--link fix to knowledge--><g class="link" data-entity-1="ent0006" data-entity-2="ent0009" data-link-type="dependency" data-source-line="49" id="lnk15"><path d="M603.2342,524.5412 C603.1832,524.6544 603.1319,524.7676 603.0803,524.8805 C602.9772,525.1065 602.873,525.3319 602.7675,525.5567 C601.9241,527.355 601.0064,529.1147 600.0081,530.8204 C598.0116,534.2316 595.6925,537.4262 593,540.28 C576.6,557.66 557.56,539.15 542,557.28 C538.4088,561.4638 535.4439,566.1225 533.0057,571.076 C532.7009,571.6952 534.909,566.8668 534.6205,567.4948" fill="none" id="fix-to-knowledge" style="stroke:#D96A1F;stroke-width:1;"/><polygon fill="#D96A1F" points="532.1158,572.947,539.5076,566.4385,534.2031,568.4035,532.238,563.0989,532.1158,572.947" style="stroke:#D96A1F;stroke-width:1;"/></g><!--link knowledge to next--><g class="link" data-entity-1="ent0009" data-entity-2="ent0011" data-link-type="dependency" data-source-line="50" id="lnk16"><path d="M514.4341,713.2281 C513.673,715.0937 512.8572,716.9366 511.9827,718.7432 C510.2338,722.3566 508.25,725.825 506,729.04 C478.855,767.83 435.5525,798.6125 398.5738,819.8738 C380.0844,830.5044 363.1759,838.7547 350.6586,844.4355 C347.5293,845.8557 344.6744,847.1153 342.1378,848.2113 C340.8696,848.7593 339.6809,849.2665 338.5773,849.7323 C338.3014,849.8488 338.0308,849.9627 337.7656,850.074 C337.633,850.1297 343.0365,847.8681 342.9066,847.9225" fill="none" id="knowledge-to-next" style="stroke:#D96A1F;stroke-width:1;"/><polygon fill="#D96A1F" points="337.3719,850.239,347.2184,850.454,341.9842,848.3086,344.1297,843.0744,337.3719,850.239" style="stroke:#D96A1F;stroke-width:1;"/></g><!--reverse link bug to next--><g class="link" data-entity-1="ent0002" data-entity-2="ent0011" data-link-type="dependency" data-source-line="51" id="lnk18"><path d="M188.2806,152.649 C187.9881,153.6272 188.9596,150.319 188.6624,151.293 C187.4738,155.1889 186.2488,159.04 185,162.76 C167.25,215.65 138,223.36 138,279.14 C138,279.14 138,279.14 138,658.66 C138,726.72 213,698.86 274,729.04 C289.86,736.89 299.26,731.98 310,746.04 C313.6263,750.7875 316.6478,755.9953 319.1586,761.4783 C319.2371,761.6496 319.315,761.8212 319.3925,761.9931" fill="none" id="bug-backto-next" style="stroke:#D96A1F;stroke-width:1;"/><polygon fill="#D96A1F" points="189.9837,146.8958,183.5935,154.3902,188.5644,151.6901,191.2645,156.661,189.9837,146.8958" style="stroke:#D96A1F;stroke-width:1;"/><text fill="#3A3A3A" font-family="Sora" font-size="13" lengthAdjust="spacing" textLength="74.607" x="152.138" y="465.51">Next bug is</text><text fill="#3A3A3A" font-family="Sora" font-size="13" lengthAdjust="spacing" textLength="90.883" x="144" y="481.89">caught earlier</text></g><!--link knowledge to GMN19--><g class="link" data-entity-1="ent0009" data-entity-2="ent0020" data-link-type="association" data-source-line="54" id="lnk21"><path d="M533.0159,657.66 C533.3681,657.66 533.7203,657.66 534.0725,657.66 C536.89,657.66 539.7075,657.66 542.525,657.66 C548.16,657.66 553.795,657.66 559.43,657.66" fill="none" id="knowledge-GMN19" style="stroke:#D96A1F;stroke-width:1;stroke-dasharray:7,7;"/></g><?plantuml-src XLHjQzim4FxkNt6qC3P3lAPfKphOO6dNCJRAe6MV0kDYdMGHMyeaEMqtjj--an8dRX8s6q9yRy-Zv-xavzeiq643CopdojdMY2jRMmV7CZsPtqHSayIs3ZVMX5ji2EwimyFkTOKXnlTmo9t-IJ0SzPo-Gc4Vj54WiVRKyuXLsZqzXlUrLgOX4w3a7tAzg0KA4RFFivxHKHdGg9hWLmRyJAmJvDRynEKOXpBPzrcdw0EQd56P_Uv361l-L_rGdKivsaKUONoVLqVdxCEw_3zfRvEtPpxAys41arPn88Fd-H6WXnb_CmCQqpWLxiLVtV7Nmhe0raqDCRO3RU0Q0_T6fUpWj5BakWfxWAS5V39Bya4h3BI6r5jB9-8kzEjjZBPcKAAdgRa0LDpdM02Y7dLDTLSm5JeHipq6em9kz2EyW2-4pgmPIBOSqvYHSGzP44ioQAnWn1WNAeAIlrAYcB5Que9cejn9gsFvgIbn4Lf7e6meAqmvoRF9skLtLi1dOnzg4ehW8xVNhpdEDrPcIa9Ux3Bz5jS0YaQ0noM9gRcgd6tmUi9w27ea3o__Z4xygrHjcOAPX90azaYS5t3B-mJtwESm8KDIXuw7YOvZEMIvplV4aeJnk0D1I_XQSPVWT6f-jEIUlgyG9NFnISEL8bDkmOoaTJmCKLRUqTKOha0xeCWmJkQ0Bm4pUDSVcQm_FfsV6vN5PdNV6_6ohOoTBnueIwSQr2G3MoBIcvK2yQ_siO-jgW9mwshD5qkMzfg7dMrMzie3VC2oWcVZ2WtEoRCh7ji_-K0DvBblqF4TbUS5UqRGyB9M7jv2nRleY4MoSOknBDkchVbieZS19GVDVP6H4Uc6oVu2?></g></svg>