<?plantuml 1.2026.2?><svg xmlns="http://www.w3.org/2000/svg" xmlns:xlink="http://www.w3.org/1999/xlink" contentStyleType="text/css" data-diagram-type="SEQUENCE" height="819px" preserveAspectRatio="none" style="width:1030px;height:819px;background:#FFFFFF;" version="1.1" viewBox="0 0 1030 819" width="1030px" zoomAndPan="magnify"><defs/><g><g class="participant-lifeline" data-entity-uid="part1" data-qualified-name="Dev" id="part1-lifeline"><g><title>Developer</title><rect fill="#000000" fill-opacity="0.00000" height="657.22" width="8" x="38.1055" y="81.38"/><line style="stroke:#9A9A9A;stroke-width:0.5;stroke-dasharray:5,5;" x1="42" x2="42" y1="81.38" y2="738.6"/></g></g><g class="participant-lifeline" data-entity-uid="part2" data-qualified-name="Copilot" id="part2-lifeline"><g><title>Copilot .Haiku.</title><rect fill="#000000" fill-opacity="0.00000" height="657.22" width="8" x="266.1665" y="81.38"/><line style="stroke:#9A9A9A;stroke-width:0.5;stroke-dasharray:5,5;" x1="269.9605" x2="269.9605" y1="81.38" y2="738.6"/></g></g><g class="participant-lifeline" data-entity-uid="part3" data-qualified-name="R" id="part3-lifeline"><g><title>Researchers</title><rect fill="#000000" fill-opacity="0.00000" height="657.22" width="8" x="598.0585" y="81.38"/><line style="stroke:#9A9A9A;stroke-width:0.5;stroke-dasharray:5,5;" x1="601.11" x2="601.11" y1="81.38" y2="738.6"/></g></g><g class="participant-lifeline" data-entity-uid="part4" data-qualified-name="Coder" id="part4-lifeline"><g><title>Implementer</title><rect fill="#000000" fill-opacity="0.00000" height="657.22" width="8" x="723.4975" y="81.38"/><line style="stroke:#9A9A9A;stroke-width:0.5;stroke-dasharray:5,5;" x1="727.007" x2="727.007" y1="81.38" y2="738.6"/></g></g><g class="participant-lifeline" data-entity-uid="part5" data-qualified-name="Reviewer" id="part5-lifeline"><g><title>Reviewer</title><rect fill="#000000" fill-opacity="0.00000" height="657.22" width="8" x="948.3445" y="81.38"/><line style="stroke:#9A9A9A;stroke-width:0.5;stroke-dasharray:5,5;" x1="951.396" x2="951.396" y1="81.38" y2="738.6"/></g></g><g class="participant participant-head" data-entity-uid="part1" data-qualified-name="Dev" id="part1-head"><text fill="#1A1A1A" font-family="Sora" font-size="13" lengthAdjust="spacing" textLength="68.211" x="5" y="77.61">Developer</text><ellipse cx="42.1055" cy="13.5" fill="#FFF4EC" rx="8" ry="8" style="stroke:#D96A1F;stroke-width:0.5;"/><path d="M42.1055,21.5 L42.1055,48.5 M29.1055,29.5 L55.1055,29.5 M42.1055,48.5 L29.1055,63.5 M42.1055,48.5 L55.1055,63.5" fill="none" style="stroke:#D96A1F;stroke-width:0.5;"/></g><g class="participant participant-tail" data-entity-uid="part1" data-qualified-name="Dev" id="part1-tail"><text fill="#1A1A1A" font-family="Sora" font-size="13" lengthAdjust="spacing" textLength="68.211" x="5" y="750.21">Developer</text><ellipse cx="42.1055" cy="762.48" fill="#FFF4EC" rx="8" ry="8" style="stroke:#D96A1F;stroke-width:0.5;"/><path d="M42.1055,770.48 L42.1055,797.48 M29.1055,778.48 L55.1055,778.48 M42.1055,797.48 L29.1055,812.48 M42.1055,797.48 L55.1055,812.48" fill="none" style="stroke:#D96A1F;stroke-width:0.5;"/></g><g class="participant participant-head" data-entity-uid="part2" data-qualified-name="Copilot" id="part2-head"><rect fill="#FFF4EC" height="46.76" rx="2.5" ry="2.5" style="stroke:#D96A1F;stroke-width:0.5;" width="114.412" x="212.9605" y="33.62"/><text fill="#1A1A1A" font-family="Sora" font-size="13" lengthAdjust="spacing" textLength="100.412" x="219.9605" y="53.23">Copilot (Haiku)</text><text fill="#1A1A1A" font-family="Sora" font-size="13" lengthAdjust="spacing" textLength="85.696" x="227.3185" y="69.61">Orchestrator</text></g><g class="participant participant-tail" data-entity-uid="part2" data-qualified-name="Copilot" id="part2-tail"><rect fill="#FFF4EC" height="46.76" rx="2.5" ry="2.5" style="stroke:#D96A1F;stroke-width:0.5;" width="114.412" x="212.9605" y="737.6"/><text fill="#1A1A1A" font-family="Sora" font-size="13" lengthAdjust="spacing" textLength="100.412" x="219.9605" y="757.21">Copilot (Haiku)</text><text fill="#1A1A1A" font-family="Sora" font-size="13" lengthAdjust="spacing" textLength="85.696" x="227.3185" y="773.59">Orchestrator</text></g><g class="participant participant-head" data-entity-uid="part3" data-qualified-name="R" id="part3-head"><rect fill="#FFF4EC" height="63.14" rx="2.5" ry="2.5" style="stroke:#D96A1F;stroke-width:0.5;" width="131.897" x="536.11" y="17.24"/><text fill="#1A1A1A" font-family="Sora" font-size="13" lengthAdjust="spacing" textLength="81.237" x="561.44" y="36.85">Researchers</text><text fill="#1A1A1A" font-family="Sora" font-size="13" lengthAdjust="spacing" textLength="117.897" x="543.11" y="53.23">(Haiku, read-only)</text><text fill="#1A1A1A" font-family="Sora" font-size="13" lengthAdjust="spacing" textLength="38.311" x="582.903" y="69.61">R1-R5</text></g><g class="participant participant-tail" data-entity-uid="part3" data-qualified-name="R" id="part3-tail"><rect fill="#FFF4EC" height="63.14" rx="2.5" ry="2.5" style="stroke:#D96A1F;stroke-width:0.5;" width="131.897" x="536.11" y="737.6"/><text fill="#1A1A1A" font-family="Sora" font-size="13" lengthAdjust="spacing" textLength="81.237" x="561.44" y="757.21">Researchers</text><text fill="#1A1A1A" font-family="Sora" font-size="13" lengthAdjust="spacing" textLength="117.897" x="543.11" y="773.59">(Haiku, read-only)</text><text fill="#1A1A1A" font-family="Sora" font-size="13" lengthAdjust="spacing" textLength="38.311" x="582.903" y="789.97">R1-R5</text></g><g class="participant participant-head" data-entity-uid="part4" data-qualified-name="Coder" id="part4-head"><rect fill="#FFF4EC" height="63.14" rx="2.5" ry="2.5" style="stroke:#D96A1F;stroke-width:0.5;" width="98.981" x="678.007" y="17.24"/><text fill="#1A1A1A" font-family="Sora" font-size="13" lengthAdjust="spacing" textLength="84.981" x="685.007" y="36.85">Implementer</text><text fill="#1A1A1A" font-family="Sora" font-size="13" lengthAdjust="spacing" textLength="57.655" x="698.67" y="53.23">(Sonnet)</text><text fill="#1A1A1A" font-family="Sora" font-size="13" lengthAdjust="spacing" textLength="41.366" x="706.8145" y="69.61">Coder</text></g><g class="participant participant-tail" data-entity-uid="part4" data-qualified-name="Coder" id="part4-tail"><rect fill="#FFF4EC" height="63.14" rx="2.5" ry="2.5" style="stroke:#D96A1F;stroke-width:0.5;" width="98.981" x="678.007" y="737.6"/><text fill="#1A1A1A" font-family="Sora" font-size="13" lengthAdjust="spacing" textLength="84.981" x="685.007" y="757.21">Implementer</text><text fill="#1A1A1A" font-family="Sora" font-size="13" lengthAdjust="spacing" textLength="57.655" x="698.67" y="773.59">(Sonnet)</text><text fill="#1A1A1A" font-family="Sora" font-size="13" lengthAdjust="spacing" textLength="41.366" x="706.8145" y="789.97">Coder</text></g><g class="participant participant-head" data-entity-uid="part5" data-qualified-name="Reviewer" id="part5-head"><rect fill="#FFF4EC" height="63.14" rx="2.5" ry="2.5" style="stroke:#D96A1F;stroke-width:0.5;" width="131.897" x="886.396" y="17.24"/><text fill="#1A1A1A" font-family="Sora" font-size="13" lengthAdjust="spacing" textLength="60.593" x="922.048" y="36.85">Reviewer</text><text fill="#1A1A1A" font-family="Sora" font-size="13" lengthAdjust="spacing" textLength="117.897" x="893.396" y="53.23">(Haiku, read-only)</text><text fill="#1A1A1A" font-family="Sora" font-size="13" lengthAdjust="spacing" textLength="50.609" x="927.04" y="69.61">Auditor</text></g><g class="participant participant-tail" data-entity-uid="part5" data-qualified-name="Reviewer" id="part5-tail"><rect fill="#FFF4EC" height="63.14" rx="2.5" ry="2.5" style="stroke:#D96A1F;stroke-width:0.5;" width="131.897" x="886.396" y="737.6"/><text fill="#1A1A1A" font-family="Sora" font-size="13" lengthAdjust="spacing" textLength="60.593" x="922.048" y="757.21">Reviewer</text><text fill="#1A1A1A" font-family="Sora" font-size="13" lengthAdjust="spacing" textLength="117.897" x="893.396" y="773.59">(Haiku, read-only)</text><text fill="#1A1A1A" font-family="Sora" font-size="13" lengthAdjust="spacing" textLength="50.609" x="927.04" y="789.97">Auditor</text></g><rect fill="#FFF4EC" height="3" style="stroke:#FFF4EC;stroke-width:1;" width="1023.293" x="0" y="112.57"/><line style="stroke:#D96A1F;stroke-width:1;" x1="0" x2="1023.293" y1="112.57" y2="112.57"/><line style="stroke:#D96A1F;stroke-width:1;" x1="0" x2="1023.293" y1="115.57" y2="115.57"/><rect fill="#FFF4EC" height="24.38" style="stroke:#D96A1F;stroke-width:2;" width="151.657" x="435.818" y="101.38"/><text fill="#D96A1F" font-family="Sora" font-size="13" font-weight="bold" lengthAdjust="spacing" textLength="135.005" x="441.818" y="117.99">Phase 1: Understand</text><g class="message" data-entity-1="part1" data-entity-2="part2" id="msg1"><polygon fill="#D96A1F" points="258.1665,154.14,268.1665,158.14,258.1665,162.14,262.1665,158.14" style="stroke:#D96A1F;stroke-width:1;"/><line style="stroke:#D96A1F;stroke-width:1;" x1="42.1055" x2="264.1665" y1="158.14" y2="158.14"/><text fill="#1A1A1A" font-family="Sora" font-size="13" lengthAdjust="spacing" textLength="166.595" x="49.1055" y="152.37">"implementa PROJ-1234"</text></g><g class="message" data-entity-1="part2" data-entity-2="part3" id="msg2"><polygon fill="#D96A1F" points="590.0585,184.52,600.0585,188.52,590.0585,192.52,594.0585,188.52" style="stroke:#D96A1F;stroke-width:1;"/><line style="stroke:#D96A1F;stroke-width:1;" x1="270.1665" x2="596.0585" y1="188.52" y2="188.52"/><text fill="#1A1A1A" font-family="Sora" font-size="13" lengthAdjust="spacing" textLength="307.892" x="277.1665" y="182.75">Read Jira + vault + Confluence + Slack + GitHub</text></g><path d="M607,201.52 L607,243.52 L840,243.52 L840,211.52 L830,201.52 L607,201.52" fill="#FFF9F3" style="stroke:#D96A1F;stroke-width:0.5;"/><path d="M830,201.52 L830,211.52 L840,211.52 L830,201.52" fill="#FFF9F3" style="stroke:#D96A1F;stroke-width:0.5;"/><text fill="#3A3A3A" font-family="Sora" font-size="13" lengthAdjust="spacing" textLength="119.704" x="613" y="219.13">All 5 run in parallel</text><text fill="#3A3A3A" font-family="Sora" font-size="13" lengthAdjust="spacing" textLength="212.758" x="613" y="235.51">Haiku = ~85% cheaper than Opus</text><g class="message" data-entity-1="part3" data-entity-2="part2" id="msg3"><polygon fill="#D96A1F" points="281.1665,267.66,271.1665,271.66,281.1665,275.66,277.1665,271.66" style="stroke:#D96A1F;stroke-width:1;"/><line style="stroke:#D96A1F;stroke-width:1;stroke-dasharray:2,2;" x1="275.1665" x2="601.0585" y1="271.66" y2="271.66"/><text fill="#1A1A1A" font-family="Sora" font-size="13" lengthAdjust="spacing" textLength="185.211" x="287.1665" y="265.89">Findings + pitfalls + patterns</text></g><rect fill="#FFF4EC" height="3" style="stroke:#FFF4EC;stroke-width:1;" width="1023.293" x="0" y="300.85"/><line style="stroke:#D96A1F;stroke-width:1;" x1="0" x2="1023.293" y1="300.85" y2="300.85"/><line style="stroke:#D96A1F;stroke-width:1;" x1="0" x2="1023.293" y1="303.85" y2="303.85"/><rect fill="#FFF4EC" height="24.38" style="stroke:#D96A1F;stroke-width:2;" width="103.726" x="459.7835" y="289.66"/><text fill="#D96A1F" font-family="Sora" font-size="13" font-weight="bold" lengthAdjust="spacing" textLength="87.074" x="465.7835" y="306.27">Phase 2: Plan</text><g class="message" data-entity-1="part2" data-entity-2="part1" id="msg4"><polygon fill="#D96A1F" points="53.1055,342.42,43.1055,346.42,53.1055,350.42,49.1055,346.42" style="stroke:#D96A1F;stroke-width:1;"/><line style="stroke:#D96A1F;stroke-width:1;stroke-dasharray:2,2;" x1="47.1055" x2="269.1665" y1="346.42" y2="346.42"/><text fill="#1A1A1A" font-family="Sora" font-size="13" lengthAdjust="spacing" textLength="204.061" x="59.1055" y="340.65">Plan with steps, risks, diagrams</text></g><g class="message" data-entity-1="part1" data-entity-2="part2" id="msg5"><polygon fill="#D96A1F" points="258.1665,372.8,268.1665,376.8,258.1665,380.8,262.1665,376.8" style="stroke:#D96A1F;stroke-width:1;"/><line style="stroke:#D96A1F;stroke-width:1;" x1="42.1055" x2="264.1665" y1="376.8" y2="376.8"/><text fill="#1A1A1A" font-family="Sora" font-size="13" lengthAdjust="spacing" textLength="77.22" x="49.1055" y="371.03">"Approved"</text></g><rect fill="#FFF4EC" height="3" style="stroke:#FFF4EC;stroke-width:1;" width="1023.293" x="0" y="405.99"/><line style="stroke:#D96A1F;stroke-width:1;" x1="0" x2="1023.293" y1="405.99" y2="405.99"/><line style="stroke:#D96A1F;stroke-width:1;" x1="0" x2="1023.293" y1="408.99" y2="408.99"/><rect fill="#FFF4EC" height="24.38" style="stroke:#D96A1F;stroke-width:2;" width="148.446" x="437.4235" y="394.8"/><text fill="#D96A1F" font-family="Sora" font-size="13" font-weight="bold" lengthAdjust="spacing" textLength="131.794" x="443.4235" y="411.41">Phase 3: Implement</text><g class="message" data-entity-1="part2" data-entity-2="part4" id="msg6"><polygon fill="#D96A1F" points="715.4975,447.56,725.4975,451.56,715.4975,455.56,719.4975,451.56" style="stroke:#D96A1F;stroke-width:1;"/><line style="stroke:#D96A1F;stroke-width:1;" x1="270.1665" x2="721.4975" y1="451.56" y2="451.56"/><text fill="#1A1A1A" font-family="Sora" font-size="13" lengthAdjust="spacing" textLength="237.783" x="277.1665" y="445.79">Approved spec + patterns + gotchas</text></g><g class="message" data-entity-1="part4" data-entity-2="part4" id="msg7"><line style="stroke:#D96A1F;stroke-width:1;" x1="727.4975" x2="769.4975" y1="498.32" y2="498.32"/><line style="stroke:#D96A1F;stroke-width:1;" x1="769.4975" x2="769.4975" y1="498.32" y2="511.32"/><line style="stroke:#D96A1F;stroke-width:1;" x1="728.4975" x2="769.4975" y1="511.32" y2="511.32"/><polygon fill="#D96A1F" points="738.4975,507.32,728.4975,511.32,738.4975,515.32,734.4975,511.32" style="stroke:#D96A1F;stroke-width:1;"/><text fill="#1A1A1A" font-family="Sora" font-size="13" lengthAdjust="spacing" textLength="204.074" x="734.4975" y="476.17">Edit types + Create component</text><text fill="#1A1A1A" font-family="Sora" font-size="13" lengthAdjust="spacing" textLength="210.847" x="734.4975" y="492.55">Write tests + Run tests + /deslop</text></g><g class="message" data-entity-1="part4" data-entity-2="part2" id="msg8"><polygon fill="#D96A1F" points="281.1665,537.7,271.1665,541.7,281.1665,545.7,277.1665,541.7" style="stroke:#D96A1F;stroke-width:1;"/><line style="stroke:#D96A1F;stroke-width:1;stroke-dasharray:2,2;" x1="275.1665" x2="726.4975" y1="541.7" y2="541.7"/><text fill="#1A1A1A" font-family="Sora" font-size="13" lengthAdjust="spacing" textLength="175.045" x="287.1665" y="535.93">Code complete, tests pass</text></g><rect fill="#FFF4EC" height="3" style="stroke:#FFF4EC;stroke-width:1;" width="1023.293" x="0" y="570.89"/><line style="stroke:#D96A1F;stroke-width:1;" x1="0" x2="1023.293" y1="570.89" y2="570.89"/><line style="stroke:#D96A1F;stroke-width:1;" x1="0" x2="1023.293" y1="573.89" y2="573.89"/><rect fill="#FFF4EC" height="24.38" style="stroke:#D96A1F;stroke-width:2;" width="135.836" x="443.7285" y="559.7"/><text fill="#D96A1F" font-family="Sora" font-size="13" font-weight="bold" lengthAdjust="spacing" textLength="119.184" x="449.7285" y="576.31">Phase 4: Wrap-up</text><g class="message" data-entity-1="part2" data-entity-2="part5" id="msg9"><polygon fill="#D96A1F" points="940.3445,612.46,950.3445,616.46,940.3445,620.46,944.3445,616.46" style="stroke:#D96A1F;stroke-width:1;"/><line style="stroke:#D96A1F;stroke-width:1;" x1="270.1665" x2="946.3445" y1="616.46" y2="616.46"/><text fill="#1A1A1A" font-family="Sora" font-size="13" lengthAdjust="spacing" textLength="179.4" x="277.1665" y="610.69">Review diff (18 dimensions)</text></g><g class="message" data-entity-1="part5" data-entity-2="part2" id="msg10"><polygon fill="#D96A1F" points="281.1665,642.84,271.1665,646.84,281.1665,650.84,277.1665,646.84" style="stroke:#D96A1F;stroke-width:1;"/><line style="stroke:#D96A1F;stroke-width:1;stroke-dasharray:2,2;" x1="275.1665" x2="951.3445" y1="646.84" y2="646.84"/><text fill="#1A1A1A" font-family="Sora" font-size="13" lengthAdjust="spacing" textLength="104.169" x="287.1665" y="641.07">Findings (if any)</text></g><g class="message" data-entity-1="part2" data-entity-2="part2" id="msg11"><line style="stroke:#D96A1F;stroke-width:1;" x1="270.1665" x2="312.1665" y1="677.22" y2="677.22"/><line style="stroke:#D96A1F;stroke-width:1;" x1="312.1665" x2="312.1665" y1="677.22" y2="690.22"/><line style="stroke:#D96A1F;stroke-width:1;" x1="271.1665" x2="312.1665" y1="690.22" y2="690.22"/><polygon fill="#D96A1F" points="281.1665,686.22,271.1665,690.22,281.1665,694.22,277.1665,690.22" style="stroke:#D96A1F;stroke-width:1;"/><text fill="#1A1A1A" font-family="Sora" font-size="13" lengthAdjust="spacing" textLength="136.89" x="277.1665" y="671.45">/commit + /create-pr</text></g><g class="message" data-entity-1="part2" data-entity-2="part1" id="msg12"><polygon fill="#D96A1F" points="53.1055,716.6,43.1055,720.6,53.1055,724.6,49.1055,720.6" style="stroke:#D96A1F;stroke-width:1;"/><line style="stroke:#D96A1F;stroke-width:1;stroke-dasharray:2,2;" x1="47.1055" x2="269.1665" y1="720.6" y2="720.6"/><text fill="#1A1A1A" font-family="Sora" font-size="13" lengthAdjust="spacing" textLength="57.213" x="59.1055" y="714.83">PR ready</text></g><?plantuml-src VLHTJzim57tFhxZgD0a45Ig53IeLgPGnXj2eKasyzEMIEAs5QtksqwwRjj--QoSf2Msm7sBvd7lkPsnVkDHeS0dFcBpCZSfbEbP26VYGXHNPBUE6PPWBTwka-uvB1bDbS3zSAlJGx_sKAV_DeDUlWNQ1gLfpEOSCXMLH7M8_SoOJ1dyYe3KoHgrB7-db9-nbhzUxxZtqm3Fsm2MxLYPbfiGlqUyctbA4G9gWSJpX6gLhwDH2g5FsI9snv2rjDzuYbyGfq-Qb0D_H3uGMvMlrgw6RXBM5TbG_-rt1BPfVoKBVCIJL6gEitPQmerrBgI2qv1l0zuHLkjaD7FqkuhlXAqxAxvMiehI4KCAr84hmRtrEfNBLZBO9xOlXCki7hARUHx-zElfUGkU6hPXGcfaEeAKVQHNfro62pbXfBfI3WplaB_dXJ3wQPC6iCqZMmQHaDCrYPXbwfh4pMTWUWw56TfKK6vA9UztuFDZ7JSjlIotOaad735bEbPJC4N-iKbRvezDRRolEri5WZwjHdl8gs8ePHSCXJ1PewQqOm0z9ajQXJ64uZAW6qBsgye81T7WL4y8aVhplzaxxPvse8X0t9bPCBk6U6uGZMFdNYBvZ9JDHl317C1NK8lf-vUukVuv2JmsVBnoeB2YCX81pCBa4Bi4tNWWcPZAa14FuTt7-4QYaICq2jq09ZpgtKGpTHhItNARqs5dofBcZ9q-48pgggBIrn4y7C16aGYblKo4bdtw9hBbRW7LCMweejo_qIJdEQIBjdYgDj3PgnT9EpKT_0Dk6DXnT5NtqMPTcO3LBQf7ISQvSGZ9HGQtPVA6EWjjevbbZQZQLCb5BhIJvcSadm-d2qPXwFAQ2LkUJb5cQzagnaO2_2og2ENPSccYqzPgT3U39eExc-aqsrM25GV17gbIMmK7lWWwKlULAsiDeIslfsG7F0ENci5ceYdP2qIsv7woJ92JTrMPVx-8m_vleFm00?></g></svg>